<svg width="193" height="47" viewBox="0 0 193 47" fill="none" xmlns="http://www.w3.org/2000/svg">
<path d="M48.477 37.7883C49.3144 38.5128 50.1803 39.2037 51.0359 39.9063C52.6485 41.2311 54.2741 42.5404 55.8686 43.886C56.4052 44.3388 56.9549 44.5497 57.673 44.5471C65.8126 44.5148 73.9521 44.5096 82.0917 44.5005C86.6897 44.4954 91.2877 44.4954 95.8871 44.4928V44.4384C95.716 44.3647 95.6421 44.2133 95.5734 44.0568C95.1093 43.7838 94.7865 43.3685 94.4689 42.9493C94.2459 42.8716 94.0878 42.7293 94.0165 42.499L93.975 42.4835C93.7883 42.4951 93.6056 42.4913 93.4422 42.3839C91.9333 42.4382 90.4257 42.4136 88.9181 42.3257C87.662 42.3671 86.4058 42.411 85.1549 42.2429C83.471 42.2946 81.7884 42.2778 80.107 42.1613C79.7117 42.1406 79.3085 42.3994 78.9183 42.1303C77.2396 42.1937 75.5635 42.1678 73.8873 42.0527C73.6955 42.0695 73.5023 42.1044 73.3105 42.1005C69.8247 42.041 66.3402 41.9763 62.8544 41.9155C61.5166 41.8922 60.1775 41.8288 58.841 41.8702C58.0256 41.8961 57.4034 41.6154 56.8097 41.1043C54.0641 38.7444 51.2939 36.413 48.5599 34.0402C48.0959 33.6378 47.8094 33.6598 47.3673 34.0402C44.6062 36.4143 41.8113 38.7496 39.0618 41.1367C38.4992 41.6244 37.934 41.834 37.2016 41.8392C33.7275 41.8651 30.2534 41.9349 26.7793 41.975C25.1187 41.9944 23.4594 42.1057 21.7988 42.0126C21.279 42.0824 20.7579 42.0928 20.2368 42.0384C19.9775 42.0928 19.7169 42.1044 19.4564 42.0488C19.1971 42.0527 18.9392 42.0578 18.6799 42.0617C18.593 42.0617 18.5062 42.0617 18.4193 42.0617C18.2041 42.063 17.9877 42.0643 17.7725 42.0669C17.6001 42.0682 17.4264 42.0695 17.2539 42.0708C13.5815 42.1445 9.90903 42.2183 6.23657 42.292C5.0284 42.3037 3.81894 42.314 2.61078 42.3257C2.52392 42.3257 2.43707 42.3269 2.35022 42.3282C2.18947 42.3696 2.02873 42.411 1.86799 42.4537C1.46613 42.9376 1.02927 43.3866 0.528896 43.7721C0.436858 43.9326 0.322782 44.071 0.141298 44.137C0.0946305 44.1861 0.0466673 44.234 0 44.2832C0.0712973 44.7308 0.432969 44.5613 0.668899 44.5613C13.2769 44.5626 25.8861 44.551 38.494 44.5562C39.0722 44.5562 39.5104 44.3737 39.9498 44.0063C42.4491 41.9207 44.9743 39.8674 47.4775 37.7857C47.8483 37.4778 48.1179 37.47 48.4834 37.7857L48.477 37.7883Z" fill="white"/>
<path d="M55.0986 37.1917C55.1025 30.231 55.0947 23.2704 55.109 16.3098C55.109 15.7625 54.9677 15.4171 54.4945 15.0884C51.526 13.03 49.4532 10.2846 48.363 6.83658C47.9546 5.54408 47.65 4.21923 47.2896 2.9112C46.9292 1.60188 46.167 1.00932 44.8175 0.975678C44.0307 0.956271 43.9931 0.989909 43.9918 1.81018C43.9879 3.98635 43.984 6.16381 43.984 8.33998C43.984 17.1533 43.9866 25.968 43.9944 34.7826C43.9944 35.0026 43.8699 35.3131 44.1473 35.4205C44.4014 35.5188 44.5557 35.2406 44.7268 35.0905C45.5992 34.3182 46.4716 33.5471 47.3311 32.763C47.7381 32.3917 48.1154 31.979 48.7765 32.6906V12.6703C49.155 12.7635 49.2509 13.0248 49.4013 13.2189C50.2543 14.3134 51.3095 15.2036 52.5902 15.6836C53.368 15.9747 53.5249 16.3589 53.5223 17.0899C53.5054 23.2316 53.534 29.3733 53.5054 35.5149C53.5015 36.3624 53.6649 37.03 54.4116 37.4867C54.6034 37.6044 54.7395 37.9227 54.9962 37.7894C55.1984 37.6846 55.096 37.3961 55.096 37.1904L55.0986 37.1917Z" fill="white"/>
<path d="M42.7875 21.7942C40.6978 19.1897 38.6237 16.5737 36.5937 13.9227C36.1063 13.2861 35.5968 13.0144 34.806 13.0688C33.9012 13.1309 33.8921 13.0843 33.8921 14.0314C33.8896 18.2957 33.8921 22.5601 33.8921 26.8244H33.8973C33.8973 29.7963 33.8973 32.7682 33.8973 35.7413C33.8973 37.1412 33.922 38.5411 33.8973 39.941C33.8883 40.4805 34.0879 40.6758 34.6181 40.6422C35.1561 40.6086 35.6966 40.6319 36.2359 40.6267C36.8771 40.6206 37.1986 40.2998 37.2003 39.6641C37.2029 33.0088 37.2042 26.3548 37.212 19.6995C37.212 19.499 37.094 19.2066 37.3261 19.1134C37.5529 19.0228 37.6787 19.3049 37.8187 19.4537C39.093 20.7992 40.3608 22.1512 41.6324 23.4994C42.0161 23.9069 42.3999 24.3158 42.7887 24.7181C42.93 24.8643 43.2178 25.0092 43.2075 24.7117C43.1751 23.731 43.5173 22.7063 42.7862 21.7942H42.7875Z" fill="white"/>
<path d="M56.7423 32.3155C57.3516 32.5328 57.9634 32.7476 58.5869 32.9197C59.077 33.0542 59.2714 33.2975 59.2649 33.8305C59.2364 35.9834 59.274 38.1376 59.2481 40.2904C59.2403 40.8959 59.5112 41.0344 60.0323 40.9982C60.5172 40.9645 61.0629 41.1029 61.0396 40.2956C61.0046 39.0691 61.0305 37.8413 61.0305 36.6135H61.0383C61.0383 35.4077 61.0383 34.2018 61.0383 32.996C61.0383 32.6855 61.0357 32.406 60.6597 32.2689C59.3621 31.798 58.0723 31.3063 56.7799 30.8237C56.6373 30.7707 56.4934 30.7202 56.3702 30.8755C56.1123 31.2002 56.3482 32.1757 56.741 32.3168L56.7423 32.3155Z" fill="white"/>
<path d="M52.2674 35.0748C52.2687 35.2882 52.2804 35.5056 52.3258 35.7126C52.3698 35.9131 52.5189 36.0878 52.7328 36.058C52.9635 36.0257 52.9039 35.7902 52.9052 35.6311C52.9117 34.5986 52.9078 33.5662 52.9078 32.5337C52.9078 31.5013 52.9052 30.4688 52.9078 29.4364C52.9078 29.1699 52.8948 28.9163 52.6161 28.7727C51.8319 28.3677 51.0489 27.9602 50.2633 27.5565C49.947 27.3948 49.8005 27.4853 49.7591 27.8515C49.6229 29.0482 49.6955 29.1996 50.7896 29.7275C51.08 29.8685 51.3639 30.0289 51.6672 30.135C52.1287 30.2968 52.2687 30.6021 52.2622 31.073C52.2428 32.4069 52.2583 33.7408 52.2674 35.0748Z" fill="white"/>
<path d="M46.2797 42.9673C46.7827 42.8509 47.6175 43.4628 47.7472 42.4808C47.8509 41.6994 47.764 40.8934 47.7536 40.0977C47.7511 39.8402 47.646 39.6604 47.3686 39.5763C46.0088 39.1687 45.4034 39.5983 45.3995 40.9891C45.3995 41.0965 45.3995 41.2039 45.3995 41.3113C45.3995 41.6981 45.3995 42.0849 45.3995 42.4718C45.3995 43.1484 45.9362 43.0462 46.281 42.966L46.2797 42.9673Z" fill="white"/>
<path d="M49.9523 42.9801C49.9743 42.9801 49.9951 42.9762 50.0171 42.9775C50.3645 42.9866 50.5343 42.8184 50.5317 42.4703C50.5252 41.6967 50.5227 40.923 50.5175 40.1493C50.5149 39.756 50.3139 39.5515 49.9199 39.5489C47.9611 39.5321 48.1841 39.4299 48.1517 41.1313C48.1517 41.196 48.1517 41.2606 48.1517 41.324C48.1919 43.2932 47.8302 42.9607 49.9536 42.9801H49.9523Z" fill="white"/>
<path d="M46.6181 46.2121C47.9468 46.2056 47.9144 46.4734 47.9014 44.948C47.8885 43.4343 48.0505 43.6594 46.6012 43.6439C45.2453 43.6801 45.2686 43.3735 45.2907 44.8704C45.314 46.379 45.0871 46.2185 46.6194 46.2121H46.6181Z" fill="white"/>
<path d="M50.6885 44.9573C50.6833 43.4422 50.8816 43.6518 49.3922 43.6518C47.9105 43.6518 48.1075 43.4345 48.0998 44.9586C48.0933 46.4257 47.9688 46.1993 49.3857 46.2148C50.9387 46.2019 50.6924 46.2705 50.6872 44.9573H50.6885Z" fill="white"/>
<path d="M65.1849 28.7236H66.2712V37.3235H65.1849V37.4567H69.0155V37.3235H67.9279V28.7236H69.0155V28.5903H65.1849V28.7236Z" fill="white"/>
<path d="M91.3446 33.7397C91.2344 33.6388 91.1294 33.5521 91.0322 33.4784C90.7302 33.252 90.4346 33.0941 90.1442 33.0049C89.9977 32.9557 89.8538 32.9182 89.7151 32.8897C89.5687 32.8651 89.4248 32.8457 89.2861 32.8289V32.7681C89.8448 32.6504 90.3244 32.4395 90.725 32.1341C91.1255 31.834 91.3304 31.4018 91.3381 30.8365C91.3226 30.0692 91.0102 29.4948 90.4022 29.1131C89.7981 28.7392 89.054 28.5529 88.1712 28.5529C88.026 28.5607 87.7616 28.5645 87.3766 28.5645C87.0033 28.5801 86.7336 28.5891 86.5651 28.5891H84.7697V28.7224H85.8612V37.3223H84.1021L80.5735 28.2734H80.4854L76.9866 37.3223H76.3553V34.1576H76.2594C76.0987 34.9249 75.8757 35.5226 75.5918 35.9534C75.2962 36.3959 74.9838 36.7129 74.6533 36.9031C74.3227 37.0933 73.9999 37.2097 73.6849 37.2498C73.3777 37.3106 73.1197 37.3352 72.9123 37.3223H71.4371L76.2957 28.5891H70.1538V31.3579H70.2497C70.4027 30.6398 70.6451 30.0731 70.9756 29.6604C71.2673 29.3033 71.5771 29.0536 71.9077 28.9113C72.2382 28.7858 72.6116 28.7224 73.029 28.7224H74.3746L69.5121 37.4555H78.2V37.3223H77.15L78.3244 34.2443H81.1504L82.3249 37.3223H81.1504V37.4555H86.9345C87.1031 37.4555 87.3857 37.4672 87.7784 37.4917C88.1842 37.4995 88.4707 37.5034 88.6405 37.5034C88.8648 37.5034 89.1772 37.4827 89.579 37.4426C89.977 37.4102 90.3516 37.3197 90.7068 37.1696C90.97 37.0273 91.1865 36.8694 91.3563 36.6961C91.5261 36.5305 91.6518 36.3558 91.7335 36.1734C91.8204 35.9832 91.8813 35.8085 91.9163 35.6507C91.9318 35.4851 91.9396 35.3428 91.9396 35.225C91.9318 34.7631 91.8294 34.3905 91.6324 34.1072C91.5533 33.9571 91.4574 33.8342 91.3433 33.7371L91.3446 33.7397ZM78.3841 34.1123L79.7348 30.5609L81.0921 34.1123H78.3841ZM87.5166 28.7237C87.7499 28.7069 87.9897 28.6952 88.2348 28.6875C88.8181 28.6797 89.2174 28.8091 89.4312 29.0769C89.6374 29.377 89.7372 29.989 89.7294 30.9102C89.7294 31.3242 89.7061 31.658 89.6594 31.909C89.6088 32.1574 89.5363 32.3437 89.4429 32.4692C89.3457 32.5831 89.2342 32.6659 89.1098 32.7189C88.9736 32.759 88.822 32.7797 88.6548 32.7797H87.5166V28.7224V28.7237ZM90.0509 36.4282C89.9563 36.7375 89.8331 36.9587 89.6801 37.092C89.535 37.2213 89.3742 37.3054 89.1966 37.3417C89.0125 37.374 88.8388 37.387 88.6781 37.3779C88.5485 37.3779 88.1609 37.3598 87.5166 37.3236V32.913H88.7714C88.9555 32.913 89.1331 32.9259 89.3016 32.9492C89.4624 32.9816 89.6114 33.0644 89.7501 33.1989C89.8876 33.3283 89.9951 33.5483 90.0742 33.8562C90.1494 34.1654 90.1857 34.5936 90.1857 35.1409C90.1857 35.6882 90.1403 36.1177 90.0496 36.4257L90.0509 36.4282Z" fill="white"/>
<path d="M98.6687 36.7997C98.2344 37.1606 97.7004 37.3353 97.0678 37.3236H95.4253V32.9506C95.6016 32.9428 95.7961 32.9506 96.0087 32.9752C96.2096 33.0075 96.4053 33.0787 96.5985 33.1887C96.7994 33.2948 96.9718 33.4694 97.117 33.7127C97.2622 33.952 97.3542 34.2871 97.3944 34.7179H97.4904V31.0824H97.3944C97.3478 31.4925 97.2544 31.8134 97.117 32.0449C96.9718 32.2882 96.802 32.4628 96.6102 32.5689C96.4248 32.6789 96.229 32.741 96.0203 32.7578C95.8077 32.7902 95.6094 32.8109 95.4253 32.8186V28.7251H96.5039C96.9122 28.7251 97.2622 28.7794 97.5526 28.8894C97.8313 29.0071 98.0594 29.1611 98.237 29.3526C98.425 29.535 98.5831 29.7459 98.7089 29.9865C98.8307 30.222 98.9332 30.4717 99.0148 30.7356H99.1107V28.5918H92.6758V28.7251H93.7686V37.3249H92.6758V37.4582H99.8315V34.9676H99.7343C99.462 35.8409 99.1056 36.4516 98.6674 36.8009L98.6687 36.7997Z" fill="white"/>
<path d="M100.538 37.3235V37.4567H107.431V34.6337H107.335C106.957 36.4023 105.839 37.2989 103.979 37.3235H103.301V28.7236H104.392V28.5903H100.541V28.7236H101.645V37.3235H100.541H100.538Z" fill="white"/>
<path d="M108.16 37.3235V37.4567H115.053V34.6337H114.957C114.58 36.4023 113.461 37.2989 111.601 37.3235H110.923V28.7236H112.014V28.5903H108.163V28.7236H109.267V37.3235H108.163H108.16Z" fill="white"/>
<path d="M118.195 28.5903H114.125V28.7236H115.127L117.771 33.6711V37.3235H116.686V37.4567H120.528V37.3235H119.427V33.0384L121.484 28.7236H122.412V28.5903H120.311V28.7236H121.339L119.284 33.0384L116.975 28.7236H118.195V28.5903Z" fill="white"/>
<path d="M125.874 28.7236H126.965V37.3235H125.874V37.4567H129.715V37.3235H128.621V33.0345C129.057 33.0423 129.402 33.1173 129.657 33.2596C129.909 33.4175 130.093 33.6012 130.211 33.8082C130.332 34.0152 130.409 34.2145 130.44 34.4047C130.475 34.6117 130.493 34.7747 130.493 34.8924H130.589V31.068H130.493C130.482 31.2711 130.448 31.4755 130.393 31.6838C130.339 31.8986 130.246 32.0939 130.117 32.2686C129.988 32.4433 129.807 32.5895 129.575 32.7072C129.332 32.821 129.014 32.8857 128.623 32.9026V28.7236H129.507C130.038 28.7236 130.48 28.8064 130.834 28.9733C131.18 29.1402 131.462 29.3576 131.678 29.6254C131.895 29.8893 132.067 30.1791 132.197 30.4961C132.318 30.8208 132.407 31.1378 132.462 31.447H132.558V28.5903H125.876V28.7236H125.874Z" fill="white"/>
<path d="M150.691 29.6355L156.129 37.5535H156.224V28.7234H157.324V28.5901H154.969V28.7234H156.067V34.6205L151.971 28.5901H149.444V28.7234H150.534V37.3232H148.788L145.26 28.2744H145.171L141.673 37.3232H141.373C141.428 37.287 141.478 37.2495 141.526 37.2081L141.426 37.0748C141.371 37.1318 141.286 37.1926 141.172 37.2573C141.132 37.2857 141.087 37.3064 141.039 37.3245H140.812V37.3698C140.792 37.3698 140.773 37.3737 140.752 37.3737C140.461 37.3815 140.277 37.2314 140.197 36.9235C140.107 36.6233 140.065 36.1045 140.073 35.367C140.073 34.8197 139.985 34.3798 139.807 34.0473C139.637 33.7148 139.416 33.4651 139.14 33.2995C138.884 33.1249 138.619 33.0058 138.342 32.9411C138.062 32.8648 137.817 32.8169 137.605 32.8014V32.7652C138.234 32.6229 138.744 32.3861 139.137 32.0536C139.526 31.7289 139.724 31.3239 139.732 30.8374C139.732 30.1724 139.438 29.6109 138.848 29.1529C138.471 28.889 138.064 28.7195 137.627 28.6419C137.202 28.5849 136.856 28.5565 136.588 28.5565C136.463 28.5642 136.231 28.5681 135.892 28.5681C135.562 28.5836 135.325 28.5927 135.178 28.5927H133.072V28.7259H134.163V37.3258H133.072V37.4591H136.922V37.3258H135.82V32.8609H136.994C137.301 32.8609 137.543 32.8997 137.72 32.9761C137.889 33.0653 138.013 33.1973 138.092 33.372C138.175 33.5466 138.228 33.7718 138.252 34.0473C138.267 34.3307 138.279 34.6593 138.287 35.0332C138.294 35.2881 138.318 35.5585 138.358 35.8418C138.401 36.1304 138.486 36.4033 138.612 36.6634C138.742 36.9183 138.952 37.1292 139.243 37.2961C139.535 37.4617 139.928 37.5497 140.423 37.5574C140.73 37.5574 140.964 37.5251 141.126 37.4604H142.89V37.3271H141.84L143.014 34.2492H145.84L147.015 37.3271H145.84V37.4604H151.798V37.3271H150.695V29.6394L150.691 29.6355ZM136.99 32.7251H135.818V28.7221C136.003 28.7065 136.253 28.6936 136.566 28.6858C136.857 28.6858 137.111 28.7363 137.326 28.8372C137.546 28.9549 137.719 29.1581 137.845 29.4453C137.928 29.5876 137.992 29.7571 138.039 29.9564C138.078 30.1556 138.099 30.4467 138.099 30.8323C138.099 31.2941 138.064 31.6551 137.992 31.9152C137.917 32.1791 137.817 32.3693 137.692 32.487C137.578 32.597 137.46 32.663 137.338 32.6876C137.2 32.7199 137.085 32.7328 136.99 32.7238V32.7251ZM143.07 34.112L144.421 30.5606L145.778 34.112H143.07Z" fill="white"/>
<path d="M169.064 28.2746H168.976L165.477 37.3234H164.743V34.9299H164.646C164.23 36.6843 163.335 37.5563 161.963 37.5485C161.519 37.5485 161.175 37.4657 160.927 37.2988C160.668 37.141 160.473 36.9378 160.345 36.6894C160.192 36.3893 160.08 35.9895 160.009 35.4901C159.93 35.0023 159.891 34.2726 159.891 33.2971C159.891 32.3216 159.93 31.5737 160.009 30.9398C160.079 30.3149 160.192 29.8232 160.344 29.4661C160.504 29.1091 160.717 28.8555 160.984 28.7054C161.246 28.567 161.571 28.4984 161.959 28.4984C162.061 28.4984 162.173 28.5023 162.293 28.51C162.415 28.5178 162.54 28.5463 162.669 28.5954C162.931 28.6679 163.192 28.8477 163.451 29.1311C163.956 29.7404 164.284 30.4507 164.437 31.2632H164.533V28.6808H164.437C164.402 28.7416 164.357 28.7921 164.301 28.8322C164.245 28.8814 164.165 28.9046 164.059 28.9046C163.995 28.9215 163.783 28.8645 163.418 28.7339C162.865 28.4867 162.371 28.3638 161.937 28.3638C161.028 28.3716 160.153 28.7921 159.312 29.6227C158.43 30.4701 157.978 31.6695 157.954 33.2233C157.97 34.6181 158.364 35.7048 159.135 36.4824C159.895 37.2729 160.845 37.6727 161.989 37.6805C162.328 37.6727 162.629 37.6442 162.89 37.5964C163.154 37.5446 163.329 37.511 163.412 37.4942C163.622 37.4308 163.781 37.3868 163.893 37.3622C163.991 37.3467 164.086 37.3376 164.178 37.3376C164.332 37.3376 164.441 37.357 164.505 37.3971C164.568 37.4372 164.615 37.4838 164.647 37.5394H164.745V37.4541H166.694V37.3208H165.644L166.819 34.2428H169.645L170.819 37.3208H169.645V37.4541H173.451V37.3208H172.595L169.066 28.272L169.064 28.2746ZM166.874 34.1122L168.225 30.5607L169.582 34.1122H166.874Z" fill="white"/>
<path d="M172.865 31.5777H172.961C173.007 31.2892 173.089 30.9748 173.203 30.6345C173.313 30.2943 173.51 29.9527 173.793 29.6124C174.162 29.2062 174.525 28.9526 174.879 28.8517C175.068 28.787 175.237 28.7508 175.387 28.7417C175.532 28.7301 175.667 28.7236 175.789 28.7236V37.3235H174.691V37.4567H178.535V37.3235H177.446V28.7236C177.695 28.7081 178.001 28.7495 178.364 28.8517C178.711 28.9526 179.066 29.2062 179.428 29.6124C179.712 29.9527 179.915 30.2943 180.037 30.6345C180.151 30.9748 180.229 31.2892 180.268 31.5777H180.364V28.5903H172.865V31.5777Z" fill="white"/>
<path d="M180.487 31.5777H180.583C180.629 31.2892 180.711 30.9748 180.825 30.6345C180.935 30.2943 181.132 29.9527 181.415 29.6124C181.784 29.2062 182.147 28.9526 182.501 28.8517C182.691 28.787 182.859 28.7508 183.01 28.7417C183.155 28.7301 183.29 28.7236 183.411 28.7236V37.3235H182.313V37.4567H186.157V37.3235H185.068V28.7236C185.317 28.7081 185.623 28.7495 185.986 28.8517C186.333 28.9526 186.688 29.2062 187.05 29.6124C187.334 29.9527 187.538 30.2943 187.659 30.6345C187.773 30.9748 187.851 31.2892 187.89 31.5777H187.986V28.5903H180.487V31.5777Z" fill="white"/>
<path d="M192.212 28.7236V28.5903H188.381V28.7236H189.469V37.3235H188.381V37.4567H192.212V37.3235H191.124V28.7236H192.212Z" fill="white"/>
<path d="M65.758 18.6577H65.0411V24.0309H65.758V18.6577Z" fill="white"/>
<path d="M70.9005 21.8521L69.0571 18.6577H68.1536V24.0309H68.8704V19.7419L70.6995 22.9014H71.0949L72.9201 19.7419V24.0309H73.6331V18.6577H72.749L70.9005 21.8521Z" fill="white"/>
<path d="M79.9902 18.9256C79.5598 18.6836 79.0801 18.562 78.5513 18.562C78.0224 18.562 77.544 18.6836 77.1123 18.9256C76.682 19.1675 76.3449 19.5013 76.1012 19.9257C75.8575 20.35 75.7357 20.8223 75.7357 21.3424C75.7357 21.7331 75.807 22.0993 75.9508 22.4434C76.0947 22.7876 76.2905 23.0812 76.5394 23.3271C76.7883 23.5729 77.0864 23.7683 77.4351 23.9106C77.7825 24.0542 78.1559 24.1253 78.5513 24.1253C79.0801 24.1253 79.5585 24.0037 79.9902 23.7618C80.4205 23.5199 80.7589 23.1861 81.0039 22.7591C81.2489 22.3334 81.372 21.8599 81.372 21.3411C81.372 20.8223 81.2489 20.3487 81.0039 19.9244C80.7589 19.5 80.4205 19.1662 79.9902 18.9243V18.9256ZM80.3635 22.4098C80.182 22.7306 79.9318 22.9816 79.6129 23.1641C79.294 23.3465 78.9401 23.4383 78.5513 23.4383C78.1624 23.4383 77.8085 23.3465 77.4896 23.1641C77.1707 22.9816 76.9218 22.7293 76.7403 22.4098C76.5601 22.0889 76.4694 21.7331 76.4694 21.3424C76.4694 21.0487 76.5225 20.7718 76.6288 20.5131C76.7351 20.2543 76.8803 20.0331 77.0631 19.848C77.2459 19.663 77.4662 19.5168 77.7242 19.4107C77.9822 19.3047 78.257 19.2516 78.5487 19.2516C78.9376 19.2516 79.2914 19.3422 79.6103 19.5233C79.9292 19.7044 80.1794 19.9554 80.3609 20.2763C80.5424 20.5972 80.6331 20.953 80.6331 21.3437C80.6331 21.7344 80.5424 22.0902 80.3609 22.4111L80.3635 22.4098Z" fill="white"/>
<path d="M86.4926 21.1795C86.6935 21.0838 86.8582 20.9285 86.9878 20.7137C87.1174 20.499 87.1822 20.2635 87.1822 20.0047C87.1822 19.6166 87.0513 19.2957 86.7882 19.0409C86.525 18.786 86.1958 18.6592 85.7991 18.6592H83.4748V24.0323H85.9858C86.4071 24.0323 86.7597 23.8952 87.0435 23.6196C87.3261 23.344 87.4687 22.9986 87.4687 22.5833C87.4687 22.2482 87.378 21.9519 87.1978 21.6918C87.0176 21.4318 86.783 21.261 86.4926 21.1808V21.1795ZM84.1683 19.3048H85.6357C85.8691 19.3048 86.0635 19.3824 86.2165 19.539C86.3708 19.6955 86.4472 19.8896 86.4472 20.1225C86.4472 20.3553 86.3682 20.5468 86.2113 20.7047C86.0545 20.8625 85.8626 20.9401 85.6357 20.9401H84.1683V19.3048ZM86.4758 23.1215C86.3021 23.2974 86.0843 23.3854 85.8224 23.3854H84.1683V21.556H85.8224C86.0843 21.556 86.3021 21.6427 86.4758 21.8148C86.6495 21.9868 86.7363 22.2042 86.7363 22.4655C86.7363 22.7269 86.6495 22.9455 86.4758 23.1215Z" fill="white"/>
<path d="M90.1741 18.6577H89.4572V24.0309H90.1741V18.6577Z" fill="white"/>
<path d="M93.2866 18.6577H92.571V24.0309H95.9012V23.362H93.2866V18.6577Z" fill="white"/>
<path d="M98.6144 18.6577H97.8975V24.0309H98.6144V18.6577Z" fill="white"/>
<path d="M103.556 17.1289L102.744 18.1368H103.46L104.413 17.1289H103.556Z" fill="white"/>
<path d="M102.733 18.6577L100.542 24.0309H101.308L101.831 22.7306H104.467L104.99 24.0309H105.778L103.587 18.6577H102.734H102.733ZM102.096 22.0695L103.148 19.4301L104.203 22.0695H102.095H102.096Z" fill="white"/>
<path d="M111.137 21.3941C111.424 21.0939 111.57 20.7265 111.57 20.2931C111.57 19.826 111.409 19.4379 111.087 19.1261C110.766 18.8143 110.367 18.6577 109.89 18.6577H107.707V24.0309H108.424V21.8974H109.212L110.819 24.0309H111.684L110.045 21.8896C110.485 21.8599 110.849 21.6943 111.137 21.3928V21.3941ZM108.422 21.2738V19.3266H109.874C110.149 19.3266 110.377 19.4198 110.56 19.6048C110.743 19.7898 110.835 20.0214 110.835 20.3008C110.835 20.5803 110.743 20.8119 110.56 20.9969C110.377 21.1819 110.149 21.2751 109.874 21.2751H108.422V21.2738Z" fill="white"/>
<path d="M114.389 18.6577H113.672V24.0309H114.389V18.6577Z" fill="white"/>
<path d="M118.508 18.6577L116.317 24.0309H117.083L117.605 22.7306H120.242L120.764 24.0309H121.553L119.362 18.6577H118.509H118.508ZM117.871 22.0695L118.922 19.4301L119.978 22.0695H117.87H117.871Z" fill="white"/>
</svg>
