<svg width="312" height="74" viewBox="0 0 312 74" fill="none" xmlns="http://www.w3.org/2000/svg">
<path d="M78.8468 59.7197C80.2052 60.8949 81.6098 62.0156 82.9976 63.1552C85.6134 65.3042 88.2503 67.4281 90.8367 69.6107C91.7072 70.3452 92.5988 70.6873 93.7637 70.6831C106.967 70.6307 120.17 70.6223 133.373 70.6076C140.832 70.5992 148.29 70.5992 155.751 70.595V70.5068C155.473 70.3872 155.353 70.1417 155.242 69.8877C154.489 69.4449 153.966 68.7712 153.45 68.0913C153.089 67.9654 152.832 67.7345 152.717 67.3609L152.649 67.3358C152.346 67.3546 152.05 67.3483 151.785 67.1741C149.337 67.2623 146.892 67.2224 144.446 67.0797C142.409 67.1469 140.371 67.2182 138.342 66.9454C135.611 67.0293 132.881 67.0021 130.154 66.8132C129.513 66.7796 128.859 67.1993 128.226 66.7628C125.503 66.8656 122.784 66.8237 120.065 66.6369C119.754 66.6642 119.44 66.7208 119.129 66.7145C113.475 66.618 107.823 66.5131 102.168 66.4144C99.9984 66.3767 97.8263 66.2738 95.6583 66.341C94.3357 66.3829 93.3264 65.9275 92.3633 65.0986C87.9097 61.2706 83.4161 57.4888 78.9814 53.6398C78.2286 52.9871 77.7639 53.0228 77.0468 53.6398C72.568 57.4909 68.0344 61.279 63.5745 65.151C62.6619 65.9422 61.7451 66.2822 60.557 66.2906C54.9216 66.3326 49.2863 66.4459 43.6509 66.511C40.9572 66.5425 38.2657 66.7229 35.5721 66.5718C34.7289 66.6852 33.8836 66.702 33.0383 66.6138C32.6177 66.702 32.1951 66.7208 31.7724 66.6306C31.3519 66.6369 30.9334 66.6453 30.5129 66.6516C30.372 66.6516 30.2311 66.6516 30.0902 66.6516C29.7411 66.6537 29.39 66.6558 29.0409 66.66C28.7613 66.6621 28.4795 66.6642 28.1998 66.6663C22.2427 66.7859 16.2856 66.9055 10.3285 67.0251C8.36875 67.044 6.40687 67.0608 4.44711 67.0797C4.30622 67.0797 4.16534 67.0818 4.02445 67.0839C3.76371 67.1511 3.50297 67.2182 3.24223 67.2875C2.59038 68.0724 1.88175 68.8006 1.07008 69.426C0.920787 69.6863 0.735743 69.9108 0.441358 70.0179C0.365659 70.0976 0.287857 70.1753 0.212158 70.255C0.32781 70.9811 0.914479 70.7062 1.29718 70.7062C21.7486 70.7083 42.2021 70.6894 62.6535 70.6978C63.5913 70.6978 64.302 70.4019 65.0149 69.8059C69.069 66.4228 73.1651 63.0922 77.2256 59.7155C77.827 59.216 78.2643 59.2034 78.8573 59.7155L78.8468 59.7197Z" fill="#222121"/>
<path d="M89.5878 58.7518C89.5941 47.4609 89.5815 36.17 89.6046 24.8792C89.6046 23.9914 89.3754 23.4311 88.6079 22.898C83.7926 19.559 80.4303 15.1056 78.6618 9.51268C77.9995 7.41611 77.5053 5.26707 76.9208 3.14531C76.3362 1.02145 75.0998 0.0602586 72.9108 0.00569306C71.6344 -0.025787 71.5734 0.0287785 71.5713 1.35934C71.565 4.88931 71.5587 8.42137 71.5587 11.9513C71.5587 26.2475 71.5629 40.5458 71.5756 54.844C71.5756 55.2008 71.3737 55.7045 71.8237 55.8787C72.2358 56.0382 72.486 55.587 72.7636 55.3435C74.1788 54.0906 75.5939 52.8398 76.988 51.568C77.6483 50.9657 78.2602 50.2962 79.3326 51.4505V18.9756C79.9466 19.1267 80.1022 19.5506 80.3461 19.8654C81.7298 21.6409 83.4414 23.0848 85.5189 23.8634C86.7806 24.3356 87.035 24.9589 87.0308 26.1447C87.0035 36.1071 87.0497 46.0695 87.0035 56.0319C86.9972 57.4065 87.2621 58.4894 88.4733 59.2303C88.7845 59.4212 89.0053 59.9375 89.4216 59.7214C89.7497 59.5514 89.5836 59.0834 89.5836 58.7497L89.5878 58.7518Z" fill="#222121"/>
<path d="M69.6178 33.7755C66.2282 29.5509 62.8638 25.3074 59.5709 21.0072C58.7802 19.9746 57.9538 19.5339 56.6712 19.6221C55.2034 19.7228 55.1887 19.6473 55.1887 21.1835C55.1845 28.1007 55.1887 35.0179 55.1887 41.9352H55.1971C55.1971 46.7558 55.1971 51.5765 55.1971 56.3992C55.1971 58.67 55.2371 60.9408 55.1971 63.2115C55.1824 64.0867 55.5062 64.4036 56.3663 64.349C57.2389 64.2944 58.1158 64.3322 58.9905 64.3238C60.0307 64.314 60.5522 63.7935 60.555 62.7624C60.5592 51.9668 60.5613 41.1733 60.5739 30.3778C60.5739 30.0525 60.3825 29.5782 60.7589 29.4271C61.1269 29.2802 61.3309 29.7377 61.558 29.979C63.625 32.1616 65.6815 34.3548 67.7443 36.5416C68.3667 37.2027 68.9891 37.8658 69.6199 38.5185C69.8491 38.7557 70.3159 38.9907 70.2991 38.508C70.2466 36.9172 70.8017 35.2551 69.6157 33.7755H69.6178Z" fill="#222121"/>
<path d="M92.254 50.8422C93.2423 51.1947 94.2348 51.5431 95.2462 51.8222C96.041 52.0405 96.3565 52.435 96.346 53.2997C96.2997 56.7919 96.3607 60.2862 96.3186 63.7784C96.306 64.7606 96.7455 64.9851 97.5908 64.9263C98.3772 64.8718 99.2625 65.0963 99.2246 63.7868C99.1679 61.7972 99.2099 59.8056 99.2099 57.8139H99.2225C99.2225 55.858 99.2225 53.902 99.2225 51.9461C99.2225 51.4424 99.2183 50.9891 98.6085 50.7666C96.5036 50.0027 94.4114 49.2052 92.315 48.4224C92.0837 48.3363 91.8503 48.2545 91.6505 48.5063C91.232 49.0331 91.6147 50.6155 92.2519 50.8443L92.254 50.8422Z" fill="#222121"/>
<path d="M84.9953 55.3179C84.9974 55.6641 85.0163 56.0167 85.0899 56.3525C85.1614 56.6778 85.4032 56.9611 85.7502 56.9129C86.1245 56.8604 86.0277 56.4784 86.0298 56.2203C86.0404 54.5455 86.034 52.8708 86.034 51.1961C86.034 49.5213 86.0298 47.8466 86.034 46.1718C86.034 45.7395 86.013 45.3282 85.5609 45.0952C84.2888 44.4383 83.0187 43.7773 81.7444 43.1225C81.2314 42.8601 80.9937 43.007 80.9265 43.601C80.7057 45.5422 80.8234 45.7878 82.5982 46.644C83.0692 46.8728 83.5297 47.133 84.0217 47.3051C84.7703 47.5675 84.9974 48.0627 84.9869 48.8267C84.9553 50.9904 84.9806 53.1541 84.9953 55.3179Z" fill="#222121"/>
<path d="M75.2826 68.1205C76.0985 67.9317 77.4527 68.9243 77.663 67.3314C77.8312 66.0638 77.6903 64.7564 77.6735 63.4657C77.6693 63.048 77.4989 62.7563 77.049 62.6199C74.8432 61.9588 73.8612 62.6556 73.8549 64.9117C73.8549 65.0858 73.8549 65.26 73.8549 65.4342C73.8549 66.0617 73.8549 66.6892 73.8549 67.3167C73.8549 68.4143 74.7254 68.2485 75.2847 68.1184L75.2826 68.1205Z" fill="#222121"/>
<path d="M81.2399 68.1412C81.2756 68.1412 81.3093 68.1349 81.345 68.137C81.9086 68.1517 82.184 67.8788 82.1798 67.3143C82.1693 66.0593 82.1651 64.8043 82.1567 63.5493C82.1525 62.9113 81.8266 62.5797 81.1873 62.5755C78.0101 62.5482 78.3717 62.3824 78.3192 65.1422C78.3192 65.2471 78.3192 65.352 78.3192 65.4549C78.3843 68.6491 77.7977 68.1097 81.242 68.1412H81.2399Z" fill="#222121"/>
<path d="M75.8315 73.3838C77.9868 73.3734 77.9342 73.8078 77.9132 71.3334C77.8922 68.878 78.155 69.2432 75.8042 69.218C73.6047 69.2767 73.6425 68.7794 73.6783 71.2075C73.7161 73.6546 73.3481 73.3943 75.8336 73.3838H75.8315Z" fill="#222121"/>
<path d="M82.4341 71.3483C82.4257 68.8908 82.7474 69.2307 80.3313 69.2307C77.9279 69.2307 78.2475 68.8782 78.2349 71.3504C78.2244 73.7303 78.0225 73.363 80.3208 73.3882C82.8399 73.3672 82.4404 73.4785 82.432 71.3483H82.4341Z" fill="#222121"/>
<path d="M105.949 45.0157H107.711V58.9656H105.949V59.1818H112.162V58.9656H110.398V45.0157H112.162V44.7996H105.949V45.0157Z" fill="#222121"/>
<path d="M148.382 53.1521C148.204 52.9884 148.033 52.8477 147.876 52.7281C147.386 52.3609 146.906 52.1048 146.435 51.96C146.198 51.8803 145.964 51.8194 145.739 51.7732C145.502 51.7333 145.268 51.7019 145.043 51.6746V51.5759C145.95 51.385 146.728 51.0429 147.377 50.5476C148.027 50.0607 148.359 49.3597 148.372 48.4426C148.347 47.1981 147.84 46.2663 146.854 45.6472C145.874 45.0407 144.667 44.7385 143.235 44.7385C142.999 44.7511 142.57 44.7574 141.946 44.7574C141.34 44.7825 140.903 44.7972 140.63 44.7972H137.717V45.0134H139.488V58.9633H136.634L130.911 44.2852H130.768L125.092 58.9633H124.068V53.8299H123.913C123.652 55.0744 123.29 56.044 122.83 56.7429C122.35 57.4606 121.844 57.9748 121.307 58.2833C120.771 58.5918 120.248 58.7807 119.737 58.8458C119.238 58.9444 118.82 58.9843 118.483 58.9633H116.09L123.972 44.7972H114.009V49.2884H114.164C114.412 48.1236 114.806 47.2044 115.342 46.5349C115.815 45.9557 116.318 45.5507 116.854 45.3198C117.39 45.1162 117.996 45.0134 118.673 45.0134H120.855L112.968 59.1794H127.061V58.9633H125.357L127.262 53.9705H131.846L133.751 58.9633H131.846V59.1794H141.229C141.502 59.1794 141.961 59.1983 142.598 59.2382C143.256 59.2508 143.721 59.2571 143.996 59.2571C144.36 59.2571 144.867 59.2235 145.519 59.1585C146.164 59.106 146.772 58.9591 147.348 58.7156C147.775 58.4848 148.126 58.2287 148.401 57.9475C148.677 57.6789 148.881 57.3956 149.013 57.0997C149.154 56.7912 149.253 56.5078 149.31 56.2518C149.335 55.9832 149.348 55.7523 149.348 55.5613C149.335 54.8121 149.169 54.2077 148.849 53.7481C148.721 53.5046 148.565 53.3053 148.38 53.1479L148.382 53.1521ZM127.359 53.7565L129.55 47.9956L131.752 53.7565H127.359ZM142.173 45.0155C142.552 44.9882 142.941 44.9693 143.338 44.9567C144.284 44.9441 144.932 45.154 145.279 45.5884C145.613 46.0753 145.775 47.068 145.762 48.5623C145.762 49.2338 145.725 49.7753 145.649 50.1824C145.567 50.5854 145.449 50.8876 145.298 51.0912C145.14 51.2758 144.959 51.4102 144.757 51.4962C144.537 51.5613 144.29 51.5948 144.019 51.5948H142.173V45.0134V45.0155ZM146.284 57.5131C146.13 58.0147 145.931 58.3736 145.683 58.5897C145.447 58.7996 145.186 58.936 144.898 58.9948C144.6 59.0472 144.318 59.0682 144.057 59.0535C143.847 59.0535 143.218 59.0241 142.173 58.9654V51.811H144.208C144.507 51.811 144.795 51.832 145.069 51.8698C145.329 51.9222 145.571 52.0565 145.796 52.2748C146.019 52.4847 146.193 52.8414 146.322 53.3409C146.444 53.8425 146.503 54.5372 146.503 55.4249C146.503 56.3127 146.429 57.0094 146.282 57.5089L146.284 57.5131Z" fill="#222121"/>
<path d="M160.263 58.116C159.559 58.7015 158.692 58.9848 157.666 58.966H155.002V51.8724C155.288 51.8598 155.603 51.8724 155.948 51.9123C156.274 51.9648 156.592 52.0802 156.905 52.2586C157.231 52.4307 157.51 52.714 157.746 53.1086C157.981 53.4968 158.131 54.0404 158.196 54.7392H158.352V48.8419H158.196C158.12 49.5072 157.969 50.0277 157.746 50.4034C157.51 50.7979 157.235 51.0812 156.924 51.2533C156.623 51.4317 156.306 51.5325 155.967 51.5597C155.622 51.6122 155.3 51.6458 155.002 51.6584V45.0182H156.751C157.414 45.0182 157.981 45.1063 158.452 45.2847C158.905 45.4757 159.275 45.7254 159.563 46.036C159.868 46.3319 160.124 46.674 160.328 47.0644C160.526 47.4463 160.692 47.8514 160.824 48.2795H160.98V44.802H150.542V45.0182H152.315V58.9681H150.542V59.1842H162.149V55.1443H161.991C161.55 56.5609 160.972 57.5514 160.261 58.1181L160.263 58.116Z" fill="#222121"/>
<path d="M163.295 58.9656V59.1818H174.476V54.6025H174.32C173.708 57.4714 171.893 58.9257 168.876 58.9656H167.776V45.0157H169.547V44.7996H163.299V45.0157H165.091V58.9656H163.299H163.295Z" fill="#222121"/>
<path d="M175.659 58.9656V59.1818H186.84V54.6025H186.684C186.072 57.4714 184.258 58.9257 181.24 58.9656H180.14V45.0157H181.911V44.7996H175.664V45.0157H177.455V58.9656H175.664H175.659Z" fill="#222121"/>
<path d="M191.937 44.7996H185.334V45.0157H186.959L191.249 53.041V58.9656H189.489V59.1818H195.722V58.9656H193.934V52.0148L197.271 45.0157H198.777V44.7996H195.368V45.0157H197.036L193.703 52.0148L189.958 45.0157H191.937V44.7996Z" fill="#222121"/>
<path d="M204.393 45.0157H206.162V58.9656H204.393V59.1818H210.624V58.9656H208.849V52.0085C209.556 52.0211 210.115 52.1428 210.529 52.3737C210.937 52.6297 211.236 52.9277 211.427 53.2635C211.625 53.5993 211.749 53.9225 211.799 54.231C211.856 54.5668 211.886 54.8312 211.886 55.0222H212.041V48.8185H211.886C211.867 49.148 211.812 49.4796 211.724 49.8175C211.635 50.1659 211.484 50.4828 211.276 50.7661C211.065 51.0494 210.773 51.2866 210.397 51.4775C210.002 51.6622 209.486 51.7672 208.851 51.7944V45.0157H210.285C211.148 45.0157 211.865 45.15 212.439 45.4208C213 45.6915 213.456 46.0441 213.807 46.4785C214.159 46.9066 214.438 47.3767 214.649 47.8909C214.846 48.4177 214.989 48.9318 215.08 49.4334H215.235V44.7996H204.396V45.0157H204.393Z" fill="#222121"/>
<path d="M244.649 46.4949L253.47 59.3388H253.623V45.0153H255.408V44.7992H251.588V45.0153H253.369V54.5811L246.724 44.7992H242.626V45.0153H244.394V58.9652H241.562L235.838 44.2871H235.695L230.02 58.9652H229.534C229.622 58.9065 229.704 58.8456 229.782 58.7784L229.62 58.5623C229.53 58.6546 229.393 58.7533 229.208 58.8582C229.143 58.9044 229.069 58.9379 228.992 58.9673H228.624V59.0408C228.592 59.0408 228.56 59.0471 228.527 59.0471C228.054 59.0597 227.755 58.8162 227.627 58.3167C227.48 57.8298 227.412 56.9883 227.425 55.792C227.425 54.9043 227.282 54.1907 226.994 53.6514C226.718 53.112 226.359 52.707 225.911 52.4384C225.497 52.155 225.066 51.962 224.618 51.857C224.164 51.7332 223.766 51.6556 223.421 51.6304V51.5716C224.441 51.3407 225.27 50.9567 225.907 50.4173C226.538 49.8906 226.859 49.2337 226.872 48.4446C226.872 47.3659 226.395 46.455 225.438 45.7121C224.826 45.284 224.166 45.0091 223.457 44.8831C222.767 44.7908 222.206 44.7446 221.773 44.7446C221.569 44.7572 221.192 44.7635 220.644 44.7635C220.107 44.7887 219.723 44.8034 219.485 44.8034H216.068V45.0195H217.838V58.9694H216.068V59.1856H222.313V58.9694H220.526V51.7269H222.431C222.929 51.7269 223.32 51.7899 223.608 51.9137C223.882 52.0585 224.084 52.2726 224.212 52.5559C224.347 52.8392 224.433 53.2044 224.471 53.6514C224.496 54.111 224.515 54.6441 224.527 55.2506C224.54 55.664 224.578 56.1026 224.643 56.5622C224.712 57.0303 224.851 57.4731 225.055 57.8949C225.265 58.3083 225.606 58.6504 226.079 58.9212C226.552 59.1898 227.189 59.3325 227.993 59.3451C228.491 59.3451 228.87 59.2926 229.132 59.1877H231.994V58.9715H230.291L232.196 53.9788H236.78L238.685 58.9715H236.78V59.1877H246.444V58.9715H244.655V46.5012L244.649 46.4949ZM222.425 51.5065H220.524V45.0132C220.822 44.9881 221.228 44.9671 221.737 44.9545C222.208 44.9545 222.62 45.0363 222.969 45.2C223.327 45.391 223.606 45.7205 223.81 46.1864C223.945 46.4173 224.05 46.6922 224.126 47.0154C224.189 47.3386 224.222 47.8108 224.222 48.4362C224.222 49.1854 224.166 49.7709 224.05 50.1928C223.928 50.6209 223.766 50.9294 223.562 51.1204C223.377 51.2988 223.186 51.4058 222.988 51.4457C222.765 51.4981 222.578 51.5191 222.425 51.5044V51.5065ZM232.287 53.7563L234.478 47.9955L236.679 53.7563H232.287Z" fill="#222121"/>
<path d="M274.451 44.2874H274.308L268.633 58.9655H267.443V55.083H267.285C266.61 57.9288 265.159 59.3433 262.932 59.3307C262.213 59.3307 261.654 59.1964 261.252 58.9257C260.832 58.6696 260.516 58.3401 260.308 57.9372C260.06 57.4503 259.879 56.8018 259.763 55.9917C259.635 55.2005 259.572 54.0168 259.572 52.4345C259.572 50.8521 259.635 49.639 259.763 48.6107C259.877 47.597 260.06 46.7995 260.306 46.2203C260.567 45.641 260.912 45.2297 261.345 44.9863C261.769 44.7617 262.297 44.6505 262.926 44.6505C263.092 44.6505 263.273 44.6568 263.469 44.6694C263.666 44.682 263.868 44.7281 264.078 44.8079C264.503 44.9254 264.926 45.2171 265.346 45.6767C266.166 46.6652 266.698 47.8174 266.946 49.1353H267.102V44.9464H266.946C266.89 45.045 266.816 45.1269 266.726 45.1919C266.635 45.2717 266.505 45.3095 266.332 45.3095C266.229 45.3367 265.885 45.2444 265.294 45.0324C264.396 44.6316 263.595 44.4322 262.89 44.4322C261.416 44.4448 259.997 45.1269 258.632 46.4742C257.202 47.8488 256.468 49.7943 256.431 52.3148C256.456 54.5772 257.095 56.3401 258.346 57.6014C259.578 58.8837 261.12 59.5322 262.974 59.5448C263.525 59.5322 264.013 59.486 264.436 59.4083C264.865 59.3244 265.149 59.2698 265.283 59.2425C265.624 59.1397 265.882 59.0684 266.063 59.0285C266.223 59.0033 266.377 58.9886 266.526 58.9886C266.776 58.9886 266.953 59.0201 267.056 59.0851C267.159 59.1502 267.235 59.2258 267.287 59.316H267.445V59.1775H270.607V58.9613H268.904L270.809 53.9686H275.393L277.298 58.9613H275.393V59.1775H281.567V58.9613H280.179L274.455 44.2832L274.451 44.2874ZM270.9 53.7566L273.091 47.9958L275.292 53.7566H270.9Z" fill="#222121"/>
<path d="M280.616 49.6454H280.772C280.848 49.1774 280.98 48.6674 281.165 48.1155C281.344 47.5635 281.664 47.0095 282.122 46.4575C282.721 45.7985 283.31 45.3872 283.884 45.2235C284.191 45.1186 284.464 45.0598 284.708 45.0451C284.944 45.0262 285.163 45.0157 285.36 45.0157V58.9656H283.579V59.1818H289.814V58.9656H288.047V45.0157C288.451 44.9905 288.947 45.0577 289.536 45.2235C290.1 45.3872 290.676 45.7985 291.263 46.4575C291.723 47.0095 292.053 47.5635 292.251 48.1155C292.436 48.6674 292.562 49.1774 292.625 49.6454H292.781V44.7996H280.616V49.6454Z" fill="#222121"/>
<path d="M292.98 49.6454H293.136C293.212 49.1774 293.344 48.6674 293.529 48.1155C293.708 47.5635 294.028 47.0095 294.486 46.4575C295.085 45.7985 295.674 45.3872 296.248 45.2235C296.555 45.1186 296.828 45.0598 297.072 45.0451C297.308 45.0262 297.527 45.0157 297.724 45.0157V58.9656H295.943V59.1818H302.178V58.9656H300.412V45.0157C300.815 44.9905 301.312 45.0577 301.9 45.2235C302.464 45.3872 303.04 45.7985 303.627 46.4575C304.087 47.0095 304.417 47.5635 304.615 48.1155C304.8 48.6674 304.926 49.1774 304.989 49.6454H305.145V44.7996H292.98V49.6454Z" fill="#222121"/>
<path d="M312 45.0157V44.7996H305.786V45.0157H307.55V58.9656H305.786V59.1818H312V58.9656H310.236V45.0157H312Z" fill="#222121"/>
<path d="M106.878 28.6877H105.716V37.4035H106.878V28.6877Z" fill="#222121"/>
<path d="M115.22 33.8694L112.23 28.6877H110.764V37.4035H111.927V30.4464L114.894 35.5714H115.535L118.496 30.4464V37.4035H119.653V28.6877H118.219L115.22 33.8694Z" fill="#222121"/>
<path d="M129.964 29.1222C129.266 28.7297 128.488 28.5325 127.63 28.5325C126.772 28.5325 125.997 28.7297 125.296 29.1222C124.598 29.5146 124.051 30.0561 123.656 30.7445C123.261 31.4328 123.063 32.1989 123.063 33.0425C123.063 33.6763 123.179 34.2703 123.412 34.8285C123.646 35.3867 123.963 35.8631 124.367 36.2619C124.771 36.6606 125.254 36.9775 125.82 37.2084C126.383 37.4413 126.989 37.5568 127.63 37.5568C128.488 37.5568 129.264 37.3595 129.964 36.967C130.663 36.5746 131.211 36.0331 131.609 35.3406C132.006 34.6501 132.206 33.882 132.206 33.0404C132.206 32.1989 132.006 31.4307 131.609 30.7424C131.211 30.054 130.663 29.5126 129.964 29.1201V29.1222ZM130.57 34.7739C130.276 35.2944 129.87 35.7015 129.353 35.9975C128.835 36.2934 128.261 36.4424 127.63 36.4424C127 36.4424 126.425 36.2934 125.908 35.9975C125.391 35.7015 124.987 35.2923 124.693 34.7739C124.401 34.2535 124.253 33.6763 124.253 33.0425C124.253 32.5661 124.34 32.117 124.512 31.6973C124.684 31.2775 124.92 30.9187 125.216 30.6186C125.513 30.3184 125.87 30.0813 126.289 29.9092C126.707 29.7371 127.153 29.6511 127.626 29.6511C128.257 29.6511 128.831 29.798 129.348 30.0918C129.866 30.3856 130.271 30.7927 130.566 31.3132C130.86 31.8337 131.007 32.4108 131.007 33.0446C131.007 33.6784 130.86 34.2556 130.566 34.776L130.57 34.7739Z" fill="#222121"/>
<path d="M140.512 32.7784C140.838 32.6231 141.105 32.3713 141.315 32.0229C141.526 31.6745 141.631 31.2925 141.631 30.8728C141.631 30.2432 141.418 29.7227 140.991 29.3093C140.565 28.8959 140.031 28.6902 139.387 28.6902H135.617V37.406H139.69C140.373 37.406 140.945 37.1835 141.406 36.7365C141.864 36.2895 142.095 35.7291 142.095 35.0555C142.095 34.5119 141.948 34.0313 141.656 33.6095C141.364 33.1877 140.983 32.9106 140.512 32.7805V32.7784ZM136.742 29.7374H139.122C139.501 29.7374 139.816 29.8633 140.064 30.1173C140.314 30.3712 140.438 30.686 140.438 31.0638C140.438 31.4415 140.31 31.7522 140.056 32.0082C139.801 32.2642 139.49 32.3901 139.122 32.3901H136.742V29.7374ZM140.485 35.9285C140.203 36.2139 139.85 36.3566 139.425 36.3566H136.742V33.3891H139.425C139.85 33.3891 140.203 33.5297 140.485 33.8088C140.766 34.088 140.907 34.4406 140.907 34.8645C140.907 35.2884 140.766 35.6431 140.485 35.9285Z" fill="#222121"/>
<path d="M146.484 28.6877H145.321V37.4035H146.484V28.6877Z" fill="#222121"/>
<path d="M151.533 28.6877H150.372V37.4035H155.774V36.3185H151.533V28.6877Z" fill="#222121"/>
<path d="M160.175 28.6877H159.012V37.4035H160.175V28.6877Z" fill="#222121"/>
<path d="M168.19 26.208L166.874 27.8429H168.035L169.58 26.208H168.19Z" fill="#222121"/>
<path d="M166.855 28.6877L163.302 37.4035H164.544L165.392 35.2944H169.669L170.516 37.4035H171.795L168.241 28.6877H166.857H166.855ZM165.823 34.2219L167.528 29.9407L169.24 34.2219H165.821H165.823Z" fill="#222121"/>
<path d="M180.487 33.1264C180.954 32.6395 181.19 32.0435 181.19 31.3405C181.19 30.5828 180.929 29.9532 180.407 29.4475C179.886 28.9417 179.238 28.6877 178.464 28.6877H174.923V37.4035H176.086V33.9428H177.365L179.972 37.4035H181.375L178.717 33.9302C179.43 33.882 180.021 33.6133 180.487 33.1243V33.1264ZM176.084 32.9313V29.7728H178.439C178.885 29.7728 179.255 29.9239 179.552 30.224C179.848 30.5241 179.997 30.8997 179.997 31.3531C179.997 31.8064 179.848 32.182 179.552 32.4821C179.255 32.7823 178.885 32.9334 178.439 32.9334H176.084V32.9313Z" fill="#222121"/>
<path d="M185.763 28.6877H184.6V37.4035H185.763V28.6877Z" fill="#222121"/>
<path d="M192.444 28.6877L188.89 37.4035H190.133L190.98 35.2944H195.257L196.104 37.4035H197.383L193.829 28.6877H192.446H192.444ZM191.411 34.2219L193.116 29.9407L194.828 34.2219H191.409H191.411Z" fill="#222121"/>
</svg>
