<svg width="228" height="124" viewBox="0 0 228 124" fill="none" xmlns="http://www.w3.org/2000/svg">
<path d="M120.321 66.0806C121.824 67.3811 123.378 68.6211 124.913 69.8821C127.808 72.2601 130.726 74.6102 133.588 77.0253C134.551 77.8381 135.537 78.2166 136.826 78.2119C151.436 78.1539 166.046 78.1446 180.655 78.1283C188.908 78.1191 197.161 78.1191 205.417 78.1144V78.0169C205.109 77.8845 204.977 77.6128 204.853 77.3318C204.02 76.8418 203.441 76.0964 202.871 75.344C202.471 75.2047 202.187 74.9492 202.059 74.5359L201.985 74.508C201.65 74.5289 201.321 74.5219 201.028 74.3292C198.32 74.4267 195.614 74.3826 192.908 74.2247C190.653 74.299 188.399 74.3779 186.153 74.0761C183.131 74.1689 180.111 74.1388 177.093 73.9298C176.383 73.8926 175.66 74.357 174.959 73.874C171.946 73.9878 168.938 73.9414 165.929 73.7347C165.585 73.7649 165.238 73.8276 164.894 73.8206C158.637 73.7138 152.383 73.5977 146.126 73.4885C143.725 73.4467 141.322 73.3329 138.923 73.4073C137.459 73.4537 136.342 72.9498 135.277 72.0325C130.349 67.7968 125.377 63.6121 120.469 59.3531C119.636 58.6309 119.122 58.6704 118.329 59.3531C113.373 63.6144 108.356 67.806 103.421 72.0906C102.412 72.966 101.397 73.3422 100.082 73.3515C93.8468 73.398 87.6111 73.5234 81.3755 73.5954C78.3949 73.6302 75.4167 73.8299 72.4361 73.6627C71.5031 73.7881 70.5677 73.8067 69.6324 73.7091C69.167 73.8067 68.6994 73.8276 68.2317 73.7277C67.7663 73.7347 67.3033 73.744 66.838 73.7509C66.6821 73.7509 66.5262 73.7509 66.3703 73.7509C65.984 73.7533 65.5955 73.7556 65.2092 73.7602C64.8998 73.7626 64.588 73.7649 64.2785 73.7672C57.6869 73.8996 51.0952 74.0319 44.5035 74.1643C42.335 74.1852 40.1642 74.2038 37.9956 74.2247C37.8397 74.2247 37.6838 74.227 37.528 74.2293C37.2394 74.3036 36.9509 74.3779 36.6624 74.4546C35.9411 75.3231 35.157 76.1289 34.2589 76.8209C34.0937 77.1089 33.8889 77.3574 33.5632 77.4758C33.4794 77.564 33.3933 77.65 33.3096 77.7382C33.4375 78.5417 34.0867 78.2375 34.5102 78.2375C57.1401 78.2398 79.7723 78.2189 102.402 78.2282C103.44 78.2282 104.226 77.9008 105.015 77.2413C109.501 73.4978 114.034 69.8124 118.527 66.076C119.192 65.5233 119.676 65.5094 120.332 66.076L120.321 66.0806Z" fill="url(#paint0_linear_28_1080)"/>
<path d="M132.206 65.0101C132.213 52.5165 132.199 40.0229 132.224 27.5293C132.224 26.547 131.971 25.927 131.121 25.3372C125.793 21.6425 122.073 16.7147 120.116 10.526C119.383 8.20609 118.836 5.82812 118.189 3.48035C117.543 1.13026 116.174 0.0666774 113.752 0.0062995C112.34 -0.0285339 112.272 0.031844 112.27 1.50414C112.263 5.41012 112.256 9.31843 112.256 13.2244C112.256 29.0434 112.261 44.8648 112.275 60.6861C112.275 61.0809 112.051 61.6382 112.549 61.831C113.005 62.0075 113.282 61.5082 113.589 61.2388C115.155 59.8524 116.721 58.4684 118.264 57.0611C118.994 56.3946 119.671 55.6539 120.858 56.9311V20.9969C121.538 21.1641 121.71 21.6332 121.98 21.9815C123.511 23.9461 125.405 25.5438 127.703 26.4054C129.099 26.9279 129.381 27.6176 129.376 28.9296C129.346 39.9533 129.397 50.9769 129.346 62.0005C129.339 63.5216 129.632 64.7198 130.972 65.5396C131.317 65.7509 131.561 66.3222 132.022 66.083C132.385 65.8949 132.201 65.377 132.201 65.0078L132.206 65.0101Z" fill="url(#paint1_linear_28_1080)"/>
<path d="M110.109 37.3735C106.358 32.6988 102.635 28.0033 98.9914 23.245C98.1165 22.1025 97.2021 21.6148 95.7828 21.7123C94.1587 21.8238 94.1424 21.7402 94.1424 23.4401C94.1378 31.0941 94.1424 38.7482 94.1424 46.4023H94.1518C94.1518 51.7364 94.1518 57.0706 94.1518 62.4071C94.1518 64.9197 94.196 67.4324 94.1518 69.945C94.1355 70.9134 94.4938 71.264 95.4454 71.2037C96.411 71.1433 97.3813 71.1851 98.3492 71.1758C99.5002 71.165 100.077 70.5891 100.08 69.4481C100.085 57.5025 100.087 45.5593 100.101 33.6138C100.101 33.2538 99.8895 32.729 100.306 32.5618C100.713 32.3992 100.939 32.9055 101.19 33.1725C103.477 35.5877 105.753 38.0144 108.035 40.4341C108.724 41.1656 109.413 41.8995 110.111 42.6217C110.365 42.8841 110.881 43.1442 110.862 42.6101C110.804 40.8498 111.419 39.0106 110.106 37.3735H110.109Z" fill="url(#paint2_linear_28_1080)"/>
<path d="M135.156 56.2576C136.249 56.6478 137.348 57.0332 138.467 57.3421C139.346 57.5836 139.695 58.0202 139.684 58.9769C139.633 62.8411 139.7 66.7076 139.653 70.5718C139.64 71.6586 140.126 71.9071 141.061 71.8421C141.931 71.7817 142.911 72.0302 142.869 70.5811C142.806 68.3796 142.853 66.1759 142.853 63.9721H142.867C142.867 61.8077 142.867 59.6434 142.867 57.4791C142.867 56.9218 142.862 56.4202 142.187 56.174C139.858 55.3287 137.543 54.4463 135.223 53.5801C134.967 53.4849 134.709 53.3943 134.488 53.673C134.025 54.2559 134.449 56.0068 135.154 56.2599L135.156 56.2576Z" fill="url(#paint3_linear_28_1080)"/>
<path d="M127.124 61.2108C127.126 61.594 127.147 61.9841 127.229 62.3557C127.308 62.7156 127.575 63.0291 127.959 62.9757C128.373 62.9176 128.266 62.495 128.269 62.2094C128.28 60.3562 128.273 58.5031 128.273 56.6499C128.273 54.7968 128.269 52.9437 128.273 51.0905C128.273 50.6122 128.25 50.157 127.75 49.8992C126.342 49.1724 124.937 48.4409 123.527 47.7163C122.959 47.4261 122.696 47.5886 122.622 48.2458C122.377 50.3939 122.508 50.6656 124.471 51.613C124.993 51.8662 125.502 52.1541 126.047 52.3445C126.875 52.6348 127.126 53.1829 127.115 54.0282C127.08 56.4224 127.108 58.8166 127.124 61.2108Z" fill="url(#paint4_linear_28_1080)"/>
<path d="M116.377 75.3764C117.28 75.1674 118.778 76.2658 119.011 74.5033C119.197 73.1006 119.041 71.6539 119.022 70.2257C119.018 69.7636 118.829 69.4408 118.331 69.2899C115.89 68.5584 114.804 69.3293 114.797 71.8257C114.797 72.0185 114.797 72.2112 114.797 72.404C114.797 73.0983 114.797 73.7927 114.797 74.487C114.797 75.7015 115.76 75.5181 116.379 75.3741L116.377 75.3764Z" fill="url(#paint5_linear_28_1080)"/>
<path d="M122.968 75.3995C123.008 75.3995 123.045 75.3926 123.085 75.3949C123.708 75.4112 124.013 75.1093 124.009 74.4846C123.997 73.0959 123.992 71.7072 123.983 70.3185C123.978 69.6126 123.618 69.2456 122.91 69.241C119.395 69.2108 119.795 69.0274 119.737 72.0811C119.737 72.1972 119.737 72.3133 119.737 72.4271C119.809 75.9615 119.16 75.3647 122.971 75.3995H122.968Z" fill="url(#paint6_linear_28_1080)"/>
<path d="M116.984 81.2008C119.369 81.1892 119.311 81.6699 119.287 78.932C119.264 76.215 119.555 76.619 116.954 76.5912C114.52 76.6562 114.562 76.1058 114.601 78.7926C114.643 81.5004 114.236 81.2124 116.986 81.2008H116.984Z" fill="url(#paint7_linear_28_1080)"/>
<path d="M124.29 78.9483C124.281 76.229 124.637 76.6052 121.963 76.6052C119.304 76.6052 119.657 76.215 119.643 78.9506C119.632 81.584 119.408 81.1776 121.952 81.2055C124.739 81.1823 124.297 81.3053 124.288 78.9483H124.29Z" fill="url(#paint8_linear_28_1080)"/>
<path d="M0 88.5156H1.94981V103.951H0V104.191H6.87553V103.951H4.92339V88.5156H6.87553V88.2764H0V88.5156Z" fill="url(#paint9_linear_28_1080)"/>
<path d="M46.9536 97.5189C46.7559 97.3378 46.5674 97.1822 46.3929 97.0498C45.8507 96.6435 45.3203 96.3601 44.7991 96.1999C44.5361 96.1117 44.2779 96.0443 44.0289 95.9932C43.766 95.9491 43.5077 95.9143 43.2588 95.8841V95.7749C44.2616 95.5636 45.1225 95.1851 45.8414 94.637C46.5604 94.0983 46.928 93.3227 46.942 92.3079C46.9141 90.9308 46.3533 89.8997 45.2621 89.2146C44.1778 88.5435 42.8423 88.2091 41.2578 88.2091C40.9972 88.2231 40.5225 88.23 39.8315 88.23C39.1614 88.2579 38.6774 88.2741 38.3749 88.2741H35.1524V88.5133H37.1115V103.949H33.9541L27.6207 87.7075H27.4625L21.1826 103.949H20.0495V98.269H19.8773C19.5888 99.6461 19.1886 100.719 18.679 101.492C18.1485 102.286 17.5878 102.855 16.9945 103.197C16.4011 103.538 15.8218 103.747 15.2564 103.819C14.705 103.928 14.2419 103.972 13.8697 103.949H11.2218L19.9425 88.2741H8.91834V93.2437H9.09052C9.36507 91.9549 9.80018 90.9377 10.3935 90.1969C10.917 89.556 11.4731 89.1078 12.0664 88.8524C12.6597 88.6271 13.3298 88.5133 14.0791 88.5133H16.4942L7.7666 104.188H23.3604V103.949H21.4758L23.5838 98.4246H28.6561L30.7641 103.949H28.6561V104.188H39.038C39.3405 104.188 39.8477 104.209 40.5527 104.253C41.281 104.267 41.7952 104.274 42.1 104.274C42.5026 104.274 43.0633 104.237 43.7846 104.165C44.4989 104.107 45.1713 103.945 45.8089 103.675C46.2812 103.42 46.6698 103.136 46.9746 102.825C47.2794 102.528 47.5051 102.214 47.6516 101.887C47.8075 101.546 47.9169 101.232 47.9797 100.949C48.0076 100.652 48.0216 100.396 48.0216 100.185C48.0076 99.3558 47.8238 98.687 47.4702 98.1784C47.3282 97.9091 47.1561 97.6885 46.9513 97.5143L46.9536 97.5189ZM23.6908 98.1877L26.1153 91.8132L28.5514 98.1877H23.6908ZM40.0828 88.5157C40.5016 88.4855 40.932 88.4646 41.3718 88.4506C42.4188 88.4367 43.1354 88.6689 43.5194 89.1496C43.8893 89.6884 44.0685 90.7868 44.0545 92.4402C44.0545 93.1833 44.0126 93.7825 43.9289 94.233C43.8381 94.6788 43.7078 95.0132 43.5403 95.2385C43.3658 95.4429 43.1657 95.5915 42.9423 95.6867C42.698 95.7587 42.4258 95.7958 42.1256 95.7958H40.0828V88.5133V88.5157ZM44.6315 102.345C44.4617 102.9 44.2406 103.297 43.9661 103.536C43.7055 103.768 43.417 103.919 43.0982 103.984C42.7678 104.042 42.456 104.065 42.1675 104.049C41.9348 104.049 41.2391 104.017 40.0828 103.952V96.035H42.335C42.6654 96.035 42.9842 96.0582 43.2867 96.1C43.5752 96.1581 43.8428 96.3067 44.0917 96.5482C44.3384 96.7805 44.5315 97.1752 44.6734 97.7279C44.8084 98.2829 44.8735 99.0516 44.8735 100.034C44.8735 101.016 44.7921 101.787 44.6292 102.34L44.6315 102.345Z" fill="url(#paint10_linear_28_1080)"/>
<path d="M60.0998 103.011C59.3203 103.659 58.3617 103.972 57.2263 103.952H54.2783V96.1024C54.5947 96.0885 54.9437 96.1024 55.3253 96.1465C55.686 96.2046 56.0373 96.3323 56.384 96.5297C56.7446 96.7201 57.0541 97.0336 57.3147 97.4702C57.5753 97.8998 57.7405 98.5013 57.8126 99.2746H57.9848V92.7491H57.8126C57.7288 93.4852 57.5613 94.0612 57.3147 94.4768C57.0541 94.9134 56.7493 95.2269 56.4049 95.4173C56.0722 95.6147 55.7209 95.7262 55.3463 95.7564C54.9647 95.8144 54.6087 95.8516 54.2783 95.8655V88.518H56.2141C56.9471 88.518 57.5753 88.6155 58.0965 88.8129C58.5967 89.0242 59.0062 89.3006 59.325 89.6443C59.6624 89.9717 59.9462 90.3502 60.1719 90.7822C60.3906 91.2048 60.5745 91.653 60.721 92.1267H60.8932V88.2788H49.3433V88.518H51.3047V103.954H49.3433V104.193H62.1869V99.7227H62.0124C61.5238 101.29 60.8839 102.386 60.0975 103.013L60.0998 103.011Z" fill="url(#paint11_linear_28_1080)"/>
<path d="M63.4551 103.951V104.191H75.8264V99.1235H75.6542C74.9771 102.298 72.9691 103.907 69.6303 103.951H68.4134V88.5156H70.3725V88.2764H63.4597V88.5156H65.4421V103.951H63.4597H63.4551Z" fill="url(#paint12_linear_28_1080)"/>
<path d="M77.1362 103.951V104.191H89.5075V99.1235H89.3354C88.6583 102.298 86.6503 103.907 83.3114 103.951H82.0945V88.5156H84.0536V88.2764H77.1409V88.5156H79.1233V103.951H77.1409H77.1362Z" fill="url(#paint13_linear_28_1080)"/>
<path d="M95.1475 88.2764H87.8416V88.5156H89.6401L94.3867 97.3958V103.951H92.4392V104.191H99.3357V103.951H97.3579V96.2602L101.05 88.5156H102.716V88.2764H98.9448V88.5156H100.79L97.102 96.2602L92.9581 88.5156H95.1475V88.2764Z" fill="url(#paint14_linear_28_1080)"/>
<path d="M108.931 88.5156H110.888V103.951H108.931V104.191H115.825V103.951H113.862V96.2532C114.643 96.2671 115.262 96.4018 115.721 96.6573C116.172 96.9406 116.502 97.2704 116.714 97.6419C116.933 98.0135 117.07 98.3711 117.126 98.7125C117.189 99.084 117.221 99.3766 117.221 99.5879H117.394V92.7234H117.221C117.2 93.088 117.14 93.4549 117.042 93.8288C116.944 94.2143 116.777 94.565 116.547 94.8785C116.314 95.192 115.99 95.4544 115.574 95.6657C115.137 95.87 114.567 95.9862 113.864 96.0164V88.5156H115.451C116.405 88.5156 117.198 88.6642 117.833 88.9637C118.455 89.2633 118.959 89.6534 119.348 90.1341C119.737 90.6079 120.046 91.1281 120.279 91.697C120.497 92.2799 120.656 92.8488 120.756 93.4038H120.928V88.2764H108.933V88.5156H108.931Z" fill="url(#paint15_linear_28_1080)"/>
<path d="M153.474 90.1529L163.235 104.365H163.405V88.5158H165.38V88.2766H161.152V88.5158H163.123V99.1005L155.771 88.2766H151.236V88.5158H153.193V103.952H150.059L143.725 87.71H143.567L137.287 103.952H136.75C136.847 103.887 136.938 103.819 137.024 103.745L136.845 103.506C136.745 103.608 136.594 103.717 136.389 103.833C136.317 103.884 136.235 103.921 136.149 103.954H135.742V104.035C135.707 104.035 135.672 104.042 135.635 104.042C135.112 104.056 134.781 103.787 134.639 103.234C134.476 102.695 134.402 101.764 134.416 100.44C134.416 99.4581 134.258 98.6686 133.939 98.0717C133.634 97.4749 133.236 97.0267 132.741 96.7295C132.282 96.416 131.805 96.2023 131.31 96.0862C130.807 95.9492 130.367 95.8633 129.986 95.8354V95.7704C131.114 95.515 132.031 95.09 132.736 94.4932C133.434 93.9103 133.79 93.1835 133.804 92.3103C133.804 91.1167 133.276 90.1088 132.217 89.2867C131.54 88.813 130.809 88.5088 130.025 88.3695C129.262 88.2673 128.641 88.2162 128.162 88.2162C127.936 88.2301 127.519 88.2371 126.912 88.2371C126.319 88.265 125.893 88.2812 125.63 88.2812H121.849V88.5204H123.808V103.956H121.849V104.195H128.76V103.956H126.782V95.9423H128.89C129.441 95.9423 129.874 96.0119 130.193 96.1489C130.495 96.3092 130.719 96.546 130.861 96.8595C131.01 97.173 131.105 97.5771 131.147 98.0717C131.175 98.5803 131.196 99.1702 131.21 99.8413C131.224 100.299 131.265 100.784 131.338 101.293C131.414 101.811 131.568 102.301 131.794 102.767C132.026 103.225 132.403 103.603 132.927 103.903C133.45 104.2 134.155 104.358 135.044 104.372C135.596 104.372 136.014 104.314 136.305 104.198H139.472V103.959H137.587L139.695 98.434H144.768L146.876 103.959H144.768V104.198H155.461V103.959H153.481V90.1599L153.474 90.1529ZM128.883 95.6984H126.779V88.5134C127.11 88.4856 127.559 88.4624 128.122 88.4484C128.643 88.4484 129.099 88.539 129.485 88.7201C129.881 88.9314 130.191 89.296 130.416 89.8116C130.565 90.067 130.681 90.3712 130.765 90.7289C130.835 91.0865 130.872 91.609 130.872 92.301C130.872 93.13 130.809 93.7779 130.681 94.2447C130.546 94.7184 130.367 95.0598 130.142 95.2711C129.937 95.4685 129.725 95.587 129.506 95.6311C129.26 95.6891 129.053 95.7124 128.883 95.6961V95.6984ZM139.795 98.1879L142.22 91.8133L144.656 98.1879H139.795Z" fill="url(#paint16_linear_28_1080)"/>
<path d="M186.451 87.7097H186.293L180.013 103.951H178.696V99.6553H178.522C177.775 102.804 176.17 104.369 173.706 104.355C172.91 104.355 172.291 104.207 171.846 103.907C171.381 103.624 171.032 103.259 170.802 102.813C170.527 102.275 170.327 101.557 170.199 100.661C170.057 99.7853 169.987 98.4756 169.987 96.7246C169.987 94.9737 170.057 93.6314 170.199 92.4935C170.325 91.3719 170.527 90.4894 170.799 89.8485C171.088 89.2076 171.47 88.7524 171.949 88.483C172.419 88.2345 173.003 88.1115 173.699 88.1115C173.882 88.1115 174.082 88.1184 174.299 88.1324C174.518 88.1463 174.741 88.1974 174.974 88.2856C175.444 88.4157 175.911 88.7385 176.377 89.247C177.284 90.3408 177.873 91.6157 178.147 93.0741H178.319V88.4389H178.147C178.084 88.548 178.003 88.6386 177.903 88.7106C177.803 88.7989 177.659 88.8407 177.468 88.8407C177.354 88.8708 176.972 88.7687 176.318 88.5341C175.325 88.0906 174.438 87.87 173.659 87.87C172.028 87.8839 170.457 88.6386 168.947 90.1295C167.365 91.6505 166.553 93.8033 166.511 96.5922C166.539 99.0956 167.246 101.046 168.631 102.442C169.994 103.861 171.7 104.578 173.752 104.592C174.362 104.578 174.901 104.527 175.369 104.441C175.844 104.348 176.158 104.288 176.307 104.258C176.684 104.144 176.97 104.065 177.17 104.021C177.347 103.993 177.517 103.977 177.682 103.977C177.959 103.977 178.154 104.012 178.268 104.084C178.382 104.156 178.466 104.239 178.524 104.339H178.699V104.186H182.198V103.947H180.313L182.422 98.4222H187.494L189.602 103.947H187.494V104.186H194.325V103.947H192.789L186.456 87.7051L186.451 87.7097ZM182.522 98.1876L184.946 91.8131L187.382 98.1876H182.522Z" fill="url(#paint17_linear_28_1080)"/>
<path d="M193.273 93.6384H193.446C193.529 93.1205 193.676 92.5562 193.881 91.9455C194.079 91.3347 194.432 90.7217 194.939 90.1109C195.603 89.3817 196.254 88.9266 196.889 88.7455C197.229 88.6293 197.531 88.5643 197.801 88.5481C198.062 88.5272 198.304 88.5156 198.523 88.5156V103.951H196.552V104.191H203.451V103.951H201.496V88.5156C201.943 88.4877 202.492 88.562 203.143 88.7455C203.767 88.9266 204.405 89.3817 205.054 90.1109C205.563 90.7217 205.929 91.3347 206.147 91.9455C206.352 92.5562 206.492 93.1205 206.561 93.6384H206.734V88.2764H193.273V93.6384Z" fill="url(#paint18_linear_28_1080)"/>
<path d="M206.955 93.6384H207.127C207.211 93.1205 207.357 92.5562 207.562 91.9455C207.76 91.3347 208.113 90.7217 208.621 90.1109C209.284 89.3817 209.935 88.9266 210.57 88.7455C210.91 88.6293 211.213 88.5643 211.482 88.5481C211.743 88.5272 211.985 88.5156 212.204 88.5156V103.951H210.233V104.191H217.132V103.951H215.177V88.5156C215.624 88.4877 216.173 88.562 216.825 88.7455C217.448 88.9266 218.086 89.3817 218.735 90.1109C219.244 90.7217 219.61 91.3347 219.828 91.9455C220.033 92.5562 220.173 93.1205 220.243 93.6384H220.415V88.2764H206.955V93.6384Z" fill="url(#paint19_linear_28_1080)"/>
<path d="M228 88.5156V88.2764H221.125V88.5156H223.077V103.951H221.125V104.191H228V103.951H226.048V88.5156H228Z" fill="url(#paint20_linear_28_1080)"/>
<path d="M66.0284 114.183H64.7417V123.827H66.0284V114.183Z" fill="url(#paint21_linear_28_1080)"/>
<path d="M75.2585 119.917L71.9499 114.183H70.3281V123.827H71.6148V116.129L74.8978 121.8H75.6075L78.8836 116.129V123.827H80.1633V114.183H78.5764L75.2585 119.917Z" fill="url(#paint22_linear_28_1080)"/>
<path d="M91.5736 114.664C90.8012 114.23 89.9403 114.011 88.9909 114.011C88.0416 114.011 87.1831 114.23 86.4083 114.664C85.6358 115.098 85.0308 115.697 84.5934 116.459C84.156 117.221 83.9373 118.068 83.9373 119.002C83.9373 119.703 84.0652 120.36 84.3235 120.978C84.5818 121.596 84.9331 122.123 85.3798 122.564C85.8266 123.005 86.3617 123.356 86.9876 123.611C87.6112 123.869 88.2813 123.997 88.9909 123.997C89.9403 123.997 90.7988 123.779 91.5736 123.344C92.3461 122.91 92.9534 122.311 93.3931 121.545C93.8329 120.781 94.0539 119.931 94.0539 118.999C94.0539 118.068 93.8329 117.218 93.3931 116.457C92.9534 115.695 92.3461 115.096 91.5736 114.661V114.664ZM92.2437 120.918C91.918 121.493 91.4689 121.944 90.8965 122.271C90.3242 122.599 89.689 122.764 88.9909 122.764C88.2929 122.764 87.6577 122.599 87.0853 122.271C86.513 121.944 86.0662 121.491 85.7405 120.918C85.4171 120.342 85.2542 119.703 85.2542 119.002C85.2542 118.475 85.3496 117.978 85.5404 117.513C85.7312 117.049 85.9918 116.652 86.3198 116.32C86.6479 115.987 87.0435 115.725 87.5065 115.535C87.9695 115.344 88.4628 115.249 88.9863 115.249C89.6843 115.249 90.3195 115.412 90.8919 115.737C91.4643 116.062 91.9133 116.512 92.2391 117.088C92.5648 117.664 92.7277 118.303 92.7277 119.004C92.7277 119.705 92.5648 120.344 92.2391 120.92L92.2437 120.918Z" fill="url(#paint23_linear_28_1080)"/>
<path d="M103.245 118.709C103.605 118.537 103.901 118.259 104.134 117.873C104.366 117.488 104.483 117.065 104.483 116.601C104.483 115.904 104.248 115.328 103.775 114.871C103.303 114.413 102.712 114.186 102 114.186H97.8281V123.83H102.335C103.091 123.83 103.724 123.584 104.234 123.089C104.741 122.594 104.997 121.974 104.997 121.229C104.997 120.627 104.834 120.096 104.511 119.629C104.187 119.162 103.766 118.856 103.245 118.712V118.709ZM99.0729 115.344H101.707C102.126 115.344 102.475 115.484 102.749 115.765C103.026 116.046 103.163 116.394 103.163 116.812C103.163 117.23 103.021 117.574 102.74 117.857C102.458 118.14 102.114 118.28 101.707 118.28H99.0729V115.344ZM103.215 122.195C102.903 122.511 102.512 122.669 102.042 122.669H99.0729V119.385H102.042C102.512 119.385 102.903 119.541 103.215 119.849C103.526 120.158 103.682 120.548 103.682 121.018C103.682 121.487 103.526 121.879 103.215 122.195Z" fill="url(#paint24_linear_28_1080)"/>
<path d="M109.853 114.183H108.566V123.827H109.853V114.183Z" fill="url(#paint25_linear_28_1080)"/>
<path d="M115.439 114.183H114.155V123.827H120.132V122.627H115.439V114.183Z" fill="url(#paint26_linear_28_1080)"/>
<path d="M125.002 114.183H123.715V123.827H125.002V114.183Z" fill="url(#paint27_linear_28_1080)"/>
<path d="M133.872 111.438L132.415 113.247H133.699L135.41 111.438H133.872Z" fill="url(#paint28_linear_28_1080)"/>
<path d="M132.394 114.183L128.462 123.827H129.837L130.775 121.493H135.507L136.445 123.827H137.86L133.927 114.183H132.396H132.394ZM131.252 120.307L133.139 115.569L135.033 120.307H131.249H131.252Z" fill="url(#paint29_linear_28_1080)"/>
<path d="M147.478 119.095C147.995 118.556 148.255 117.896 148.255 117.118C148.255 116.28 147.967 115.583 147.39 115.024C146.813 114.464 146.096 114.183 145.24 114.183H141.322V123.827H142.608V119.998H144.023L146.908 123.827H148.46L145.519 119.984C146.308 119.931 146.962 119.633 147.478 119.092V119.095ZM142.606 118.879V115.384H145.212C145.705 115.384 146.115 115.551 146.443 115.883C146.771 116.215 146.936 116.631 146.936 117.132C146.936 117.634 146.771 118.05 146.443 118.382C146.115 118.714 145.705 118.881 145.212 118.881H142.606V118.879Z" fill="url(#paint30_linear_28_1080)"/>
<path d="M153.316 114.183H152.03V123.827H153.316V114.183Z" fill="url(#paint31_linear_28_1080)"/>
<path d="M160.708 114.183L156.776 123.827H158.151L159.089 121.493H163.821L164.759 123.827H166.174L162.241 114.183H160.71H160.708ZM159.566 120.307L161.453 115.569L163.347 120.307H159.563H159.566Z" fill="url(#paint32_linear_28_1080)"/>
<defs>
<linearGradient id="paint0_linear_28_1080" x1="-9.8765e-05" y1="61.9981" x2="228" y2="61.9981" gradientUnits="userSpaceOnUse">
<stop stop-color="#FBF09C"/>
<stop offset="0.06" stop-color="#F8EC97"/>
<stop offset="0.13" stop-color="#F2E18A"/>
<stop offset="0.2" stop-color="#E7CE74"/>
<stop offset="0.27" stop-color="#D9B456"/>
<stop offset="0.34" stop-color="#C6932F"/>
<stop offset="0.35" stop-color="#C6932F"/>
<stop offset="0.4" stop-color="#C79632"/>
<stop offset="0.45" stop-color="#CD9F3D"/>
<stop offset="0.49" stop-color="#D6AF50"/>
<stop offset="0.54" stop-color="#E2C56A"/>
<stop offset="0.58" stop-color="#F2E18B"/>
<stop offset="0.6" stop-color="#FBF09C"/>
<stop offset="0.67" stop-color="#F7E993"/>
<stop offset="0.79" stop-color="#EFD77D"/>
<stop offset="0.94" stop-color="#E2BA5A"/>
<stop offset="1" stop-color="#DCAD49"/>
</linearGradient>
<linearGradient id="paint1_linear_28_1080" x1="7.96543e-05" y1="61.9982" x2="228" y2="61.9982" gradientUnits="userSpaceOnUse">
<stop stop-color="#FBF09C"/>
<stop offset="0.06" stop-color="#F8EC97"/>
<stop offset="0.13" stop-color="#F2E18A"/>
<stop offset="0.2" stop-color="#E7CE74"/>
<stop offset="0.27" stop-color="#D9B456"/>
<stop offset="0.34" stop-color="#C6932F"/>
<stop offset="0.35" stop-color="#C6932F"/>
<stop offset="0.4" stop-color="#C79632"/>
<stop offset="0.45" stop-color="#CD9F3D"/>
<stop offset="0.49" stop-color="#D6AF50"/>
<stop offset="0.54" stop-color="#E2C56A"/>
<stop offset="0.58" stop-color="#F2E18B"/>
<stop offset="0.6" stop-color="#FBF09C"/>
<stop offset="0.67" stop-color="#F7E993"/>
<stop offset="0.79" stop-color="#EFD77D"/>
<stop offset="0.94" stop-color="#E2BA5A"/>
<stop offset="1" stop-color="#DCAD49"/>
</linearGradient>
<linearGradient id="paint2_linear_28_1080" x1="2.18233e-05" y1="61.9984" x2="228" y2="61.9984" gradientUnits="userSpaceOnUse">
<stop stop-color="#FBF09C"/>
<stop offset="0.06" stop-color="#F8EC97"/>
<stop offset="0.13" stop-color="#F2E18A"/>
<stop offset="0.2" stop-color="#E7CE74"/>
<stop offset="0.27" stop-color="#D9B456"/>
<stop offset="0.34" stop-color="#C6932F"/>
<stop offset="0.35" stop-color="#C6932F"/>
<stop offset="0.4" stop-color="#C79632"/>
<stop offset="0.45" stop-color="#CD9F3D"/>
<stop offset="0.49" stop-color="#D6AF50"/>
<stop offset="0.54" stop-color="#E2C56A"/>
<stop offset="0.58" stop-color="#F2E18B"/>
<stop offset="0.6" stop-color="#FBF09C"/>
<stop offset="0.67" stop-color="#F7E993"/>
<stop offset="0.79" stop-color="#EFD77D"/>
<stop offset="0.94" stop-color="#E2BA5A"/>
<stop offset="1" stop-color="#DCAD49"/>
</linearGradient>
<linearGradient id="paint3_linear_28_1080" x1="-0.000120008" y1="61.9982" x2="228" y2="61.9982" gradientUnits="userSpaceOnUse">
<stop stop-color="#FBF09C"/>
<stop offset="0.06" stop-color="#F8EC97"/>
<stop offset="0.13" stop-color="#F2E18A"/>
<stop offset="0.2" stop-color="#E7CE74"/>
<stop offset="0.27" stop-color="#D9B456"/>
<stop offset="0.34" stop-color="#C6932F"/>
<stop offset="0.35" stop-color="#C6932F"/>
<stop offset="0.4" stop-color="#C79632"/>
<stop offset="0.45" stop-color="#CD9F3D"/>
<stop offset="0.49" stop-color="#D6AF50"/>
<stop offset="0.54" stop-color="#E2C56A"/>
<stop offset="0.58" stop-color="#F2E18B"/>
<stop offset="0.6" stop-color="#FBF09C"/>
<stop offset="0.67" stop-color="#F7E993"/>
<stop offset="0.79" stop-color="#EFD77D"/>
<stop offset="0.94" stop-color="#E2BA5A"/>
<stop offset="1" stop-color="#DCAD49"/>
</linearGradient>
<linearGradient id="paint4_linear_28_1080" x1="-0.000145691" y1="61.998" x2="228" y2="61.998" gradientUnits="userSpaceOnUse">
<stop stop-color="#FBF09C"/>
<stop offset="0.06" stop-color="#F8EC97"/>
<stop offset="0.13" stop-color="#F2E18A"/>
<stop offset="0.2" stop-color="#E7CE74"/>
<stop offset="0.27" stop-color="#D9B456"/>
<stop offset="0.34" stop-color="#C6932F"/>
<stop offset="0.35" stop-color="#C6932F"/>
<stop offset="0.4" stop-color="#C79632"/>
<stop offset="0.45" stop-color="#CD9F3D"/>
<stop offset="0.49" stop-color="#D6AF50"/>
<stop offset="0.54" stop-color="#E2C56A"/>
<stop offset="0.58" stop-color="#F2E18B"/>
<stop offset="0.6" stop-color="#FBF09C"/>
<stop offset="0.67" stop-color="#F7E993"/>
<stop offset="0.79" stop-color="#EFD77D"/>
<stop offset="0.94" stop-color="#E2BA5A"/>
<stop offset="1" stop-color="#DCAD49"/>
</linearGradient>
<linearGradient id="paint5_linear_28_1080" x1="2.1308e-05" y1="61.9981" x2="228" y2="61.9981" gradientUnits="userSpaceOnUse">
<stop stop-color="#FBF09C"/>
<stop offset="0.06" stop-color="#F8EC97"/>
<stop offset="0.13" stop-color="#F2E18A"/>
<stop offset="0.2" stop-color="#E7CE74"/>
<stop offset="0.27" stop-color="#D9B456"/>
<stop offset="0.34" stop-color="#C6932F"/>
<stop offset="0.35" stop-color="#C6932F"/>
<stop offset="0.4" stop-color="#C79632"/>
<stop offset="0.45" stop-color="#CD9F3D"/>
<stop offset="0.49" stop-color="#D6AF50"/>
<stop offset="0.54" stop-color="#E2C56A"/>
<stop offset="0.58" stop-color="#F2E18B"/>
<stop offset="0.6" stop-color="#FBF09C"/>
<stop offset="0.67" stop-color="#F7E993"/>
<stop offset="0.79" stop-color="#EFD77D"/>
<stop offset="0.94" stop-color="#E2BA5A"/>
<stop offset="1" stop-color="#DCAD49"/>
</linearGradient>
<linearGradient id="paint6_linear_28_1080" x1="0.00015903" y1="61.998" x2="228" y2="61.998" gradientUnits="userSpaceOnUse">
<stop stop-color="#FBF09C"/>
<stop offset="0.06" stop-color="#F8EC97"/>
<stop offset="0.13" stop-color="#F2E18A"/>
<stop offset="0.2" stop-color="#E7CE74"/>
<stop offset="0.27" stop-color="#D9B456"/>
<stop offset="0.34" stop-color="#C6932F"/>
<stop offset="0.35" stop-color="#C6932F"/>
<stop offset="0.4" stop-color="#C79632"/>
<stop offset="0.45" stop-color="#CD9F3D"/>
<stop offset="0.49" stop-color="#D6AF50"/>
<stop offset="0.54" stop-color="#E2C56A"/>
<stop offset="0.58" stop-color="#F2E18B"/>
<stop offset="0.6" stop-color="#FBF09C"/>
<stop offset="0.67" stop-color="#F7E993"/>
<stop offset="0.79" stop-color="#EFD77D"/>
<stop offset="0.94" stop-color="#E2BA5A"/>
<stop offset="1" stop-color="#DCAD49"/>
</linearGradient>
<linearGradient id="paint7_linear_28_1080" x1="2.59572e-05" y1="61.9983" x2="228" y2="61.9983" gradientUnits="userSpaceOnUse">
<stop stop-color="#FBF09C"/>
<stop offset="0.06" stop-color="#F8EC97"/>
<stop offset="0.13" stop-color="#F2E18A"/>
<stop offset="0.2" stop-color="#E7CE74"/>
<stop offset="0.27" stop-color="#D9B456"/>
<stop offset="0.34" stop-color="#C6932F"/>
<stop offset="0.35" stop-color="#C6932F"/>
<stop offset="0.4" stop-color="#C79632"/>
<stop offset="0.45" stop-color="#CD9F3D"/>
<stop offset="0.49" stop-color="#D6AF50"/>
<stop offset="0.54" stop-color="#E2C56A"/>
<stop offset="0.58" stop-color="#F2E18B"/>
<stop offset="0.6" stop-color="#FBF09C"/>
<stop offset="0.67" stop-color="#F7E993"/>
<stop offset="0.79" stop-color="#EFD77D"/>
<stop offset="0.94" stop-color="#E2BA5A"/>
<stop offset="1" stop-color="#DCAD49"/>
</linearGradient>
<linearGradient id="paint8_linear_28_1080" x1="0.000145904" y1="61.9983" x2="228" y2="61.9983" gradientUnits="userSpaceOnUse">
<stop stop-color="#FBF09C"/>
<stop offset="0.06" stop-color="#F8EC97"/>
<stop offset="0.13" stop-color="#F2E18A"/>
<stop offset="0.2" stop-color="#E7CE74"/>
<stop offset="0.27" stop-color="#D9B456"/>
<stop offset="0.34" stop-color="#C6932F"/>
<stop offset="0.35" stop-color="#C6932F"/>
<stop offset="0.4" stop-color="#C79632"/>
<stop offset="0.45" stop-color="#CD9F3D"/>
<stop offset="0.49" stop-color="#D6AF50"/>
<stop offset="0.54" stop-color="#E2C56A"/>
<stop offset="0.58" stop-color="#F2E18B"/>
<stop offset="0.6" stop-color="#FBF09C"/>
<stop offset="0.67" stop-color="#F7E993"/>
<stop offset="0.79" stop-color="#EFD77D"/>
<stop offset="0.94" stop-color="#E2BA5A"/>
<stop offset="1" stop-color="#DCAD49"/>
</linearGradient>
<linearGradient id="paint9_linear_28_1080" x1="0" y1="61.998" x2="228" y2="61.998" gradientUnits="userSpaceOnUse">
<stop stop-color="#FBF09C"/>
<stop offset="0.06" stop-color="#F8EC97"/>
<stop offset="0.13" stop-color="#F2E18A"/>
<stop offset="0.2" stop-color="#E7CE74"/>
<stop offset="0.27" stop-color="#D9B456"/>
<stop offset="0.34" stop-color="#C6932F"/>
<stop offset="0.35" stop-color="#C6932F"/>
<stop offset="0.4" stop-color="#C79632"/>
<stop offset="0.45" stop-color="#CD9F3D"/>
<stop offset="0.49" stop-color="#D6AF50"/>
<stop offset="0.54" stop-color="#E2C56A"/>
<stop offset="0.58" stop-color="#F2E18B"/>
<stop offset="0.6" stop-color="#FBF09C"/>
<stop offset="0.67" stop-color="#F7E993"/>
<stop offset="0.79" stop-color="#EFD77D"/>
<stop offset="0.94" stop-color="#E2BA5A"/>
<stop offset="1" stop-color="#DCAD49"/>
</linearGradient>
<linearGradient id="paint10_linear_28_1080" x1="-7.02813e-05" y1="61.9981" x2="228" y2="61.9981" gradientUnits="userSpaceOnUse">
<stop stop-color="#FBF09C"/>
<stop offset="0.06" stop-color="#F8EC97"/>
<stop offset="0.13" stop-color="#F2E18A"/>
<stop offset="0.2" stop-color="#E7CE74"/>
<stop offset="0.27" stop-color="#D9B456"/>
<stop offset="0.34" stop-color="#C6932F"/>
<stop offset="0.35" stop-color="#C6932F"/>
<stop offset="0.4" stop-color="#C79632"/>
<stop offset="0.45" stop-color="#CD9F3D"/>
<stop offset="0.49" stop-color="#D6AF50"/>
<stop offset="0.54" stop-color="#E2C56A"/>
<stop offset="0.58" stop-color="#F2E18B"/>
<stop offset="0.6" stop-color="#FBF09C"/>
<stop offset="0.67" stop-color="#F7E993"/>
<stop offset="0.79" stop-color="#EFD77D"/>
<stop offset="0.94" stop-color="#E2BA5A"/>
<stop offset="1" stop-color="#DCAD49"/>
</linearGradient>
<linearGradient id="paint11_linear_28_1080" x1="1.35628e-05" y1="61.9982" x2="228" y2="61.9982" gradientUnits="userSpaceOnUse">
<stop stop-color="#FBF09C"/>
<stop offset="0.06" stop-color="#F8EC97"/>
<stop offset="0.13" stop-color="#F2E18A"/>
<stop offset="0.2" stop-color="#E7CE74"/>
<stop offset="0.27" stop-color="#D9B456"/>
<stop offset="0.34" stop-color="#C6932F"/>
<stop offset="0.35" stop-color="#C6932F"/>
<stop offset="0.4" stop-color="#C79632"/>
<stop offset="0.45" stop-color="#CD9F3D"/>
<stop offset="0.49" stop-color="#D6AF50"/>
<stop offset="0.54" stop-color="#E2C56A"/>
<stop offset="0.58" stop-color="#F2E18B"/>
<stop offset="0.6" stop-color="#FBF09C"/>
<stop offset="0.67" stop-color="#F7E993"/>
<stop offset="0.79" stop-color="#EFD77D"/>
<stop offset="0.94" stop-color="#E2BA5A"/>
<stop offset="1" stop-color="#DCAD49"/>
</linearGradient>
<linearGradient id="paint12_linear_28_1080" x1="9.06817e-05" y1="61.998" x2="228" y2="61.998" gradientUnits="userSpaceOnUse">
<stop stop-color="#FBF09C"/>
<stop offset="0.06" stop-color="#F8EC97"/>
<stop offset="0.13" stop-color="#F2E18A"/>
<stop offset="0.2" stop-color="#E7CE74"/>
<stop offset="0.27" stop-color="#D9B456"/>
<stop offset="0.34" stop-color="#C6932F"/>
<stop offset="0.35" stop-color="#C6932F"/>
<stop offset="0.4" stop-color="#C79632"/>
<stop offset="0.45" stop-color="#CD9F3D"/>
<stop offset="0.49" stop-color="#D6AF50"/>
<stop offset="0.54" stop-color="#E2C56A"/>
<stop offset="0.58" stop-color="#F2E18B"/>
<stop offset="0.6" stop-color="#FBF09C"/>
<stop offset="0.67" stop-color="#F7E993"/>
<stop offset="0.79" stop-color="#EFD77D"/>
<stop offset="0.94" stop-color="#E2BA5A"/>
<stop offset="1" stop-color="#DCAD49"/>
</linearGradient>
<linearGradient id="paint13_linear_28_1080" x1="-1.78265e-05" y1="61.998" x2="228" y2="61.998" gradientUnits="userSpaceOnUse">
<stop stop-color="#FBF09C"/>
<stop offset="0.06" stop-color="#F8EC97"/>
<stop offset="0.13" stop-color="#F2E18A"/>
<stop offset="0.2" stop-color="#E7CE74"/>
<stop offset="0.27" stop-color="#D9B456"/>
<stop offset="0.34" stop-color="#C6932F"/>
<stop offset="0.35" stop-color="#C6932F"/>
<stop offset="0.4" stop-color="#C79632"/>
<stop offset="0.45" stop-color="#CD9F3D"/>
<stop offset="0.49" stop-color="#D6AF50"/>
<stop offset="0.54" stop-color="#E2C56A"/>
<stop offset="0.58" stop-color="#F2E18B"/>
<stop offset="0.6" stop-color="#FBF09C"/>
<stop offset="0.67" stop-color="#F7E993"/>
<stop offset="0.79" stop-color="#EFD77D"/>
<stop offset="0.94" stop-color="#E2BA5A"/>
<stop offset="1" stop-color="#DCAD49"/>
</linearGradient>
<linearGradient id="paint14_linear_28_1080" x1="-1.60978e-05" y1="61.998" x2="228" y2="61.998" gradientUnits="userSpaceOnUse">
<stop stop-color="#FBF09C"/>
<stop offset="0.06" stop-color="#F8EC97"/>
<stop offset="0.13" stop-color="#F2E18A"/>
<stop offset="0.2" stop-color="#E7CE74"/>
<stop offset="0.27" stop-color="#D9B456"/>
<stop offset="0.34" stop-color="#C6932F"/>
<stop offset="0.35" stop-color="#C6932F"/>
<stop offset="0.4" stop-color="#C79632"/>
<stop offset="0.45" stop-color="#CD9F3D"/>
<stop offset="0.49" stop-color="#D6AF50"/>
<stop offset="0.54" stop-color="#E2C56A"/>
<stop offset="0.58" stop-color="#F2E18B"/>
<stop offset="0.6" stop-color="#FBF09C"/>
<stop offset="0.67" stop-color="#F7E993"/>
<stop offset="0.79" stop-color="#EFD77D"/>
<stop offset="0.94" stop-color="#E2BA5A"/>
<stop offset="1" stop-color="#DCAD49"/>
</linearGradient>
<linearGradient id="paint15_linear_28_1080" x1="3.42347e-05" y1="61.998" x2="228" y2="61.998" gradientUnits="userSpaceOnUse">
<stop stop-color="#FBF09C"/>
<stop offset="0.06" stop-color="#F8EC97"/>
<stop offset="0.13" stop-color="#F2E18A"/>
<stop offset="0.2" stop-color="#E7CE74"/>
<stop offset="0.27" stop-color="#D9B456"/>
<stop offset="0.34" stop-color="#C6932F"/>
<stop offset="0.35" stop-color="#C6932F"/>
<stop offset="0.4" stop-color="#C79632"/>
<stop offset="0.45" stop-color="#CD9F3D"/>
<stop offset="0.49" stop-color="#D6AF50"/>
<stop offset="0.54" stop-color="#E2C56A"/>
<stop offset="0.58" stop-color="#F2E18B"/>
<stop offset="0.6" stop-color="#FBF09C"/>
<stop offset="0.67" stop-color="#F7E993"/>
<stop offset="0.79" stop-color="#EFD77D"/>
<stop offset="0.94" stop-color="#E2BA5A"/>
<stop offset="1" stop-color="#DCAD49"/>
</linearGradient>
<linearGradient id="paint16_linear_28_1080" x1="-0.000169295" y1="61.9983" x2="228" y2="61.9983" gradientUnits="userSpaceOnUse">
<stop stop-color="#FBF09C"/>
<stop offset="0.06" stop-color="#F8EC97"/>
<stop offset="0.13" stop-color="#F2E18A"/>
<stop offset="0.2" stop-color="#E7CE74"/>
<stop offset="0.27" stop-color="#D9B456"/>
<stop offset="0.34" stop-color="#C6932F"/>
<stop offset="0.35" stop-color="#C6932F"/>
<stop offset="0.4" stop-color="#C79632"/>
<stop offset="0.45" stop-color="#CD9F3D"/>
<stop offset="0.49" stop-color="#D6AF50"/>
<stop offset="0.54" stop-color="#E2C56A"/>
<stop offset="0.58" stop-color="#F2E18B"/>
<stop offset="0.6" stop-color="#FBF09C"/>
<stop offset="0.67" stop-color="#F7E993"/>
<stop offset="0.79" stop-color="#EFD77D"/>
<stop offset="0.94" stop-color="#E2BA5A"/>
<stop offset="1" stop-color="#DCAD49"/>
</linearGradient>
<linearGradient id="paint17_linear_28_1080" x1="0.000123739" y1="61.998" x2="228" y2="61.998" gradientUnits="userSpaceOnUse">
<stop stop-color="#FBF09C"/>
<stop offset="0.06" stop-color="#F8EC97"/>
<stop offset="0.13" stop-color="#F2E18A"/>
<stop offset="0.2" stop-color="#E7CE74"/>
<stop offset="0.27" stop-color="#D9B456"/>
<stop offset="0.34" stop-color="#C6932F"/>
<stop offset="0.35" stop-color="#C6932F"/>
<stop offset="0.4" stop-color="#C79632"/>
<stop offset="0.45" stop-color="#CD9F3D"/>
<stop offset="0.49" stop-color="#D6AF50"/>
<stop offset="0.54" stop-color="#E2C56A"/>
<stop offset="0.58" stop-color="#F2E18B"/>
<stop offset="0.6" stop-color="#FBF09C"/>
<stop offset="0.67" stop-color="#F7E993"/>
<stop offset="0.79" stop-color="#EFD77D"/>
<stop offset="0.94" stop-color="#E2BA5A"/>
<stop offset="1" stop-color="#DCAD49"/>
</linearGradient>
<linearGradient id="paint18_linear_28_1080" x1="-2.3578e-05" y1="61.998" x2="228" y2="61.998" gradientUnits="userSpaceOnUse">
<stop stop-color="#FBF09C"/>
<stop offset="0.06" stop-color="#F8EC97"/>
<stop offset="0.13" stop-color="#F2E18A"/>
<stop offset="0.2" stop-color="#E7CE74"/>
<stop offset="0.27" stop-color="#D9B456"/>
<stop offset="0.34" stop-color="#C6932F"/>
<stop offset="0.35" stop-color="#C6932F"/>
<stop offset="0.4" stop-color="#C79632"/>
<stop offset="0.45" stop-color="#CD9F3D"/>
<stop offset="0.49" stop-color="#D6AF50"/>
<stop offset="0.54" stop-color="#E2C56A"/>
<stop offset="0.58" stop-color="#F2E18B"/>
<stop offset="0.6" stop-color="#FBF09C"/>
<stop offset="0.67" stop-color="#F7E993"/>
<stop offset="0.79" stop-color="#EFD77D"/>
<stop offset="0.94" stop-color="#E2BA5A"/>
<stop offset="1" stop-color="#DCAD49"/>
</linearGradient>
<linearGradient id="paint19_linear_28_1080" x1="7.49524e-05" y1="61.998" x2="228" y2="61.998" gradientUnits="userSpaceOnUse">
<stop stop-color="#FBF09C"/>
<stop offset="0.06" stop-color="#F8EC97"/>
<stop offset="0.13" stop-color="#F2E18A"/>
<stop offset="0.2" stop-color="#E7CE74"/>
<stop offset="0.27" stop-color="#D9B456"/>
<stop offset="0.34" stop-color="#C6932F"/>
<stop offset="0.35" stop-color="#C6932F"/>
<stop offset="0.4" stop-color="#C79632"/>
<stop offset="0.45" stop-color="#CD9F3D"/>
<stop offset="0.49" stop-color="#D6AF50"/>
<stop offset="0.54" stop-color="#E2C56A"/>
<stop offset="0.58" stop-color="#F2E18B"/>
<stop offset="0.6" stop-color="#FBF09C"/>
<stop offset="0.67" stop-color="#F7E993"/>
<stop offset="0.79" stop-color="#EFD77D"/>
<stop offset="0.94" stop-color="#E2BA5A"/>
<stop offset="1" stop-color="#DCAD49"/>
</linearGradient>
<linearGradient id="paint20_linear_28_1080" x1="0.000118396" y1="61.998" x2="228" y2="61.998" gradientUnits="userSpaceOnUse">
<stop stop-color="#FBF09C"/>
<stop offset="0.06" stop-color="#F8EC97"/>
<stop offset="0.13" stop-color="#F2E18A"/>
<stop offset="0.2" stop-color="#E7CE74"/>
<stop offset="0.27" stop-color="#D9B456"/>
<stop offset="0.34" stop-color="#C6932F"/>
<stop offset="0.35" stop-color="#C6932F"/>
<stop offset="0.4" stop-color="#C79632"/>
<stop offset="0.45" stop-color="#CD9F3D"/>
<stop offset="0.49" stop-color="#D6AF50"/>
<stop offset="0.54" stop-color="#E2C56A"/>
<stop offset="0.58" stop-color="#F2E18B"/>
<stop offset="0.6" stop-color="#FBF09C"/>
<stop offset="0.67" stop-color="#F7E993"/>
<stop offset="0.79" stop-color="#EFD77D"/>
<stop offset="0.94" stop-color="#E2BA5A"/>
<stop offset="1" stop-color="#DCAD49"/>
</linearGradient>
<linearGradient id="paint21_linear_28_1080" x1="4.64792e-05" y1="61.998" x2="228" y2="61.998" gradientUnits="userSpaceOnUse">
<stop stop-color="#FBF09C"/>
<stop offset="0.06" stop-color="#F8EC97"/>
<stop offset="0.13" stop-color="#F2E18A"/>
<stop offset="0.2" stop-color="#E7CE74"/>
<stop offset="0.27" stop-color="#D9B456"/>
<stop offset="0.34" stop-color="#C6932F"/>
<stop offset="0.35" stop-color="#C6932F"/>
<stop offset="0.4" stop-color="#C79632"/>
<stop offset="0.45" stop-color="#CD9F3D"/>
<stop offset="0.49" stop-color="#D6AF50"/>
<stop offset="0.54" stop-color="#E2C56A"/>
<stop offset="0.58" stop-color="#F2E18B"/>
<stop offset="0.6" stop-color="#FBF09C"/>
<stop offset="0.67" stop-color="#F7E993"/>
<stop offset="0.79" stop-color="#EFD77D"/>
<stop offset="0.94" stop-color="#E2BA5A"/>
<stop offset="1" stop-color="#DCAD49"/>
</linearGradient>
<linearGradient id="paint22_linear_28_1080" x1="-3.09548e-05" y1="61.998" x2="228" y2="61.998" gradientUnits="userSpaceOnUse">
<stop stop-color="#FBF09C"/>
<stop offset="0.06" stop-color="#F8EC97"/>
<stop offset="0.13" stop-color="#F2E18A"/>
<stop offset="0.2" stop-color="#E7CE74"/>
<stop offset="0.27" stop-color="#D9B456"/>
<stop offset="0.34" stop-color="#C6932F"/>
<stop offset="0.35" stop-color="#C6932F"/>
<stop offset="0.4" stop-color="#C79632"/>
<stop offset="0.45" stop-color="#CD9F3D"/>
<stop offset="0.49" stop-color="#D6AF50"/>
<stop offset="0.54" stop-color="#E2C56A"/>
<stop offset="0.58" stop-color="#F2E18B"/>
<stop offset="0.6" stop-color="#FBF09C"/>
<stop offset="0.67" stop-color="#F7E993"/>
<stop offset="0.79" stop-color="#EFD77D"/>
<stop offset="0.94" stop-color="#E2BA5A"/>
<stop offset="1" stop-color="#DCAD49"/>
</linearGradient>
<linearGradient id="paint23_linear_28_1080" x1="-6.71473e-05" y1="61.9979" x2="228" y2="61.9979" gradientUnits="userSpaceOnUse">
<stop stop-color="#FBF09C"/>
<stop offset="0.06" stop-color="#F8EC97"/>
<stop offset="0.13" stop-color="#F2E18A"/>
<stop offset="0.2" stop-color="#E7CE74"/>
<stop offset="0.27" stop-color="#D9B456"/>
<stop offset="0.34" stop-color="#C6932F"/>
<stop offset="0.35" stop-color="#C6932F"/>
<stop offset="0.4" stop-color="#C79632"/>
<stop offset="0.45" stop-color="#CD9F3D"/>
<stop offset="0.49" stop-color="#D6AF50"/>
<stop offset="0.54" stop-color="#E2C56A"/>
<stop offset="0.58" stop-color="#F2E18B"/>
<stop offset="0.6" stop-color="#FBF09C"/>
<stop offset="0.67" stop-color="#F7E993"/>
<stop offset="0.79" stop-color="#EFD77D"/>
<stop offset="0.94" stop-color="#E2BA5A"/>
<stop offset="1" stop-color="#DCAD49"/>
</linearGradient>
<linearGradient id="paint24_linear_28_1080" x1="0.000162601" y1="61.9981" x2="228" y2="61.9981" gradientUnits="userSpaceOnUse">
<stop stop-color="#FBF09C"/>
<stop offset="0.06" stop-color="#F8EC97"/>
<stop offset="0.13" stop-color="#F2E18A"/>
<stop offset="0.2" stop-color="#E7CE74"/>
<stop offset="0.27" stop-color="#D9B456"/>
<stop offset="0.34" stop-color="#C6932F"/>
<stop offset="0.35" stop-color="#C6932F"/>
<stop offset="0.4" stop-color="#C79632"/>
<stop offset="0.45" stop-color="#CD9F3D"/>
<stop offset="0.49" stop-color="#D6AF50"/>
<stop offset="0.54" stop-color="#E2C56A"/>
<stop offset="0.58" stop-color="#F2E18B"/>
<stop offset="0.6" stop-color="#FBF09C"/>
<stop offset="0.67" stop-color="#F7E993"/>
<stop offset="0.79" stop-color="#EFD77D"/>
<stop offset="0.94" stop-color="#E2BA5A"/>
<stop offset="1" stop-color="#DCAD49"/>
</linearGradient>
<linearGradient id="paint25_linear_28_1080" x1="3.95143e-05" y1="61.998" x2="228" y2="61.998" gradientUnits="userSpaceOnUse">
<stop stop-color="#FBF09C"/>
<stop offset="0.06" stop-color="#F8EC97"/>
<stop offset="0.13" stop-color="#F2E18A"/>
<stop offset="0.2" stop-color="#E7CE74"/>
<stop offset="0.27" stop-color="#D9B456"/>
<stop offset="0.34" stop-color="#C6932F"/>
<stop offset="0.35" stop-color="#C6932F"/>
<stop offset="0.4" stop-color="#C79632"/>
<stop offset="0.45" stop-color="#CD9F3D"/>
<stop offset="0.49" stop-color="#D6AF50"/>
<stop offset="0.54" stop-color="#E2C56A"/>
<stop offset="0.58" stop-color="#F2E18B"/>
<stop offset="0.6" stop-color="#FBF09C"/>
<stop offset="0.67" stop-color="#F7E993"/>
<stop offset="0.79" stop-color="#EFD77D"/>
<stop offset="0.94" stop-color="#E2BA5A"/>
<stop offset="1" stop-color="#DCAD49"/>
</linearGradient>
<linearGradient id="paint26_linear_28_1080" x1="3.33777e-05" y1="61.998" x2="228" y2="61.998" gradientUnits="userSpaceOnUse">
<stop stop-color="#FBF09C"/>
<stop offset="0.06" stop-color="#F8EC97"/>
<stop offset="0.13" stop-color="#F2E18A"/>
<stop offset="0.2" stop-color="#E7CE74"/>
<stop offset="0.27" stop-color="#D9B456"/>
<stop offset="0.34" stop-color="#C6932F"/>
<stop offset="0.35" stop-color="#C6932F"/>
<stop offset="0.4" stop-color="#C79632"/>
<stop offset="0.45" stop-color="#CD9F3D"/>
<stop offset="0.49" stop-color="#D6AF50"/>
<stop offset="0.54" stop-color="#E2C56A"/>
<stop offset="0.58" stop-color="#F2E18B"/>
<stop offset="0.6" stop-color="#FBF09C"/>
<stop offset="0.67" stop-color="#F7E993"/>
<stop offset="0.79" stop-color="#EFD77D"/>
<stop offset="0.94" stop-color="#E2BA5A"/>
<stop offset="1" stop-color="#DCAD49"/>
</linearGradient>
<linearGradient id="paint27_linear_28_1080" x1="0.000711822" y1="61.998" x2="227.999" y2="61.998" gradientUnits="userSpaceOnUse">
<stop stop-color="#FBF09C"/>
<stop offset="0.06" stop-color="#F8EC97"/>
<stop offset="0.13" stop-color="#F2E18A"/>
<stop offset="0.2" stop-color="#E7CE74"/>
<stop offset="0.27" stop-color="#D9B456"/>
<stop offset="0.34" stop-color="#C6932F"/>
<stop offset="0.35" stop-color="#C6932F"/>
<stop offset="0.4" stop-color="#C79632"/>
<stop offset="0.45" stop-color="#CD9F3D"/>
<stop offset="0.49" stop-color="#D6AF50"/>
<stop offset="0.54" stop-color="#E2C56A"/>
<stop offset="0.58" stop-color="#F2E18B"/>
<stop offset="0.6" stop-color="#FBF09C"/>
<stop offset="0.67" stop-color="#F7E993"/>
<stop offset="0.79" stop-color="#EFD77D"/>
<stop offset="0.94" stop-color="#E2BA5A"/>
<stop offset="1" stop-color="#DCAD49"/>
</linearGradient>
<linearGradient id="paint28_linear_28_1080" x1="7.01395e-05" y1="61.9982" x2="228" y2="61.9982" gradientUnits="userSpaceOnUse">
<stop stop-color="#FBF09C"/>
<stop offset="0.06" stop-color="#F8EC97"/>
<stop offset="0.13" stop-color="#F2E18A"/>
<stop offset="0.2" stop-color="#E7CE74"/>
<stop offset="0.27" stop-color="#D9B456"/>
<stop offset="0.34" stop-color="#C6932F"/>
<stop offset="0.35" stop-color="#C6932F"/>
<stop offset="0.4" stop-color="#C79632"/>
<stop offset="0.45" stop-color="#CD9F3D"/>
<stop offset="0.49" stop-color="#D6AF50"/>
<stop offset="0.54" stop-color="#E2C56A"/>
<stop offset="0.58" stop-color="#F2E18B"/>
<stop offset="0.6" stop-color="#FBF09C"/>
<stop offset="0.67" stop-color="#F7E993"/>
<stop offset="0.79" stop-color="#EFD77D"/>
<stop offset="0.94" stop-color="#E2BA5A"/>
<stop offset="1" stop-color="#DCAD49"/>
</linearGradient>
<linearGradient id="paint29_linear_28_1080" x1="-1.59447e-05" y1="61.998" x2="228" y2="61.998" gradientUnits="userSpaceOnUse">
<stop stop-color="#FBF09C"/>
<stop offset="0.06" stop-color="#F8EC97"/>
<stop offset="0.13" stop-color="#F2E18A"/>
<stop offset="0.2" stop-color="#E7CE74"/>
<stop offset="0.27" stop-color="#D9B456"/>
<stop offset="0.34" stop-color="#C6932F"/>
<stop offset="0.35" stop-color="#C6932F"/>
<stop offset="0.4" stop-color="#C79632"/>
<stop offset="0.45" stop-color="#CD9F3D"/>
<stop offset="0.49" stop-color="#D6AF50"/>
<stop offset="0.54" stop-color="#E2C56A"/>
<stop offset="0.58" stop-color="#F2E18B"/>
<stop offset="0.6" stop-color="#FBF09C"/>
<stop offset="0.67" stop-color="#F7E993"/>
<stop offset="0.79" stop-color="#EFD77D"/>
<stop offset="0.94" stop-color="#E2BA5A"/>
<stop offset="1" stop-color="#DCAD49"/>
</linearGradient>
<linearGradient id="paint30_linear_28_1080" x1="2.42542e-06" y1="61.998" x2="228" y2="61.998" gradientUnits="userSpaceOnUse">
<stop stop-color="#FBF09C"/>
<stop offset="0.06" stop-color="#F8EC97"/>
<stop offset="0.13" stop-color="#F2E18A"/>
<stop offset="0.2" stop-color="#E7CE74"/>
<stop offset="0.27" stop-color="#D9B456"/>
<stop offset="0.34" stop-color="#C6932F"/>
<stop offset="0.35" stop-color="#C6932F"/>
<stop offset="0.4" stop-color="#C79632"/>
<stop offset="0.45" stop-color="#CD9F3D"/>
<stop offset="0.49" stop-color="#D6AF50"/>
<stop offset="0.54" stop-color="#E2C56A"/>
<stop offset="0.58" stop-color="#F2E18B"/>
<stop offset="0.6" stop-color="#FBF09C"/>
<stop offset="0.67" stop-color="#F7E993"/>
<stop offset="0.79" stop-color="#EFD77D"/>
<stop offset="0.94" stop-color="#E2BA5A"/>
<stop offset="1" stop-color="#DCAD49"/>
</linearGradient>
<linearGradient id="paint31_linear_28_1080" x1="0.000936392" y1="61.998" x2="228" y2="61.998" gradientUnits="userSpaceOnUse">
<stop stop-color="#FBF09C"/>
<stop offset="0.06" stop-color="#F8EC97"/>
<stop offset="0.13" stop-color="#F2E18A"/>
<stop offset="0.2" stop-color="#E7CE74"/>
<stop offset="0.27" stop-color="#D9B456"/>
<stop offset="0.34" stop-color="#C6932F"/>
<stop offset="0.35" stop-color="#C6932F"/>
<stop offset="0.4" stop-color="#C79632"/>
<stop offset="0.45" stop-color="#CD9F3D"/>
<stop offset="0.49" stop-color="#D6AF50"/>
<stop offset="0.54" stop-color="#E2C56A"/>
<stop offset="0.58" stop-color="#F2E18B"/>
<stop offset="0.6" stop-color="#FBF09C"/>
<stop offset="0.67" stop-color="#F7E993"/>
<stop offset="0.79" stop-color="#EFD77D"/>
<stop offset="0.94" stop-color="#E2BA5A"/>
<stop offset="1" stop-color="#DCAD49"/>
</linearGradient>
<linearGradient id="paint32_linear_28_1080" x1="-0.000207323" y1="61.998" x2="228" y2="61.998" gradientUnits="userSpaceOnUse">
<stop stop-color="#FBF09C"/>
<stop offset="0.06" stop-color="#F8EC97"/>
<stop offset="0.13" stop-color="#F2E18A"/>
<stop offset="0.2" stop-color="#E7CE74"/>
<stop offset="0.27" stop-color="#D9B456"/>
<stop offset="0.34" stop-color="#C6932F"/>
<stop offset="0.35" stop-color="#C6932F"/>
<stop offset="0.4" stop-color="#C79632"/>
<stop offset="0.45" stop-color="#CD9F3D"/>
<stop offset="0.49" stop-color="#D6AF50"/>
<stop offset="0.54" stop-color="#E2C56A"/>
<stop offset="0.58" stop-color="#F2E18B"/>
<stop offset="0.6" stop-color="#FBF09C"/>
<stop offset="0.67" stop-color="#F7E993"/>
<stop offset="0.79" stop-color="#EFD77D"/>
<stop offset="0.94" stop-color="#E2BA5A"/>
<stop offset="1" stop-color="#DCAD49"/>
</linearGradient>
</defs>
</svg>
