<svg width="108" height="52" viewBox="0 0 108 52" fill="none" xmlns="http://www.w3.org/2000/svg">
<path d="M54.9365 41.5669C55.8726 42.3849 56.8406 43.165 57.797 43.9581C59.5997 45.454 61.4169 46.9322 63.1993 48.4514C63.7993 48.9627 64.4137 49.2008 65.2165 49.1979C74.3155 49.1614 83.4145 49.1555 92.5134 49.1453C97.6535 49.1394 102.793 49.1394 107.935 49.1365V49.0752C107.744 48.9919 107.661 48.821 107.584 48.6443C107.065 48.336 106.705 47.8671 106.35 47.3938C106.1 47.3062 105.924 47.1455 105.844 46.8855L105.797 46.868C105.589 46.8811 105.384 46.8767 105.202 46.7555C103.515 46.8168 101.83 46.7891 100.144 46.6898C98.7403 46.7365 97.3361 46.7862 95.9377 46.5963C94.0553 46.6547 92.1743 46.6357 90.2948 46.5042C89.8529 46.4809 89.4022 46.773 88.966 46.4692C87.0894 46.5408 85.2157 46.5115 83.342 46.3815C83.1275 46.4005 82.9116 46.44 82.6972 46.4356C78.8005 46.3684 74.9053 46.2954 71.0086 46.2267C69.5131 46.2004 68.0162 46.1288 66.5222 46.1756C65.6107 46.2048 64.9151 45.8878 64.2514 45.3108C61.1822 42.6464 58.0854 40.0141 55.0292 37.3351C54.5105 36.8808 54.1902 36.9056 53.6961 37.3351C50.6095 40.0156 47.4852 42.6522 44.4116 45.3473C43.7827 45.898 43.1509 46.1347 42.3321 46.1405C38.4485 46.1697 34.5649 46.2486 30.6813 46.2939C28.8249 46.3158 26.9701 46.4414 25.1138 46.3363C24.5327 46.4151 23.9501 46.4268 23.3676 46.3655C23.0778 46.4268 22.7865 46.44 22.4952 46.3772C22.2054 46.3815 21.917 46.3874 21.6272 46.3918C21.5301 46.3918 21.433 46.3918 21.3359 46.3918C21.0954 46.3932 20.8534 46.3947 20.6128 46.3976C20.4201 46.3991 20.2259 46.4005 20.0332 46.402C15.9278 46.4853 11.8225 46.5685 7.71716 46.6518C6.36659 46.6649 5.01457 46.6766 3.664 46.6898C3.56691 46.6898 3.46981 46.6912 3.37272 46.6927C3.19303 46.7394 3.01335 46.7862 2.83366 46.8344C2.38443 47.3807 1.89608 47.8876 1.33672 48.3229C1.23383 48.504 1.10631 48.6603 0.903436 48.7348C0.851268 48.7903 0.797651 48.8444 0.745483 48.8999C0.825185 49.4053 1.22949 49.2139 1.49323 49.2139C15.5873 49.2154 29.6828 49.2023 43.7769 49.2081C44.4232 49.2081 44.913 49.0021 45.4042 48.5873C48.1981 46.2325 51.021 43.9143 53.8192 41.564C54.2337 41.2163 54.5351 41.2075 54.9437 41.564L54.9365 41.5669Z" fill="black"/>
<path d="M62.3385 40.8935C62.3428 33.0346 62.3342 25.1757 62.3501 17.3168C62.3501 16.6989 62.1921 16.3089 61.6632 15.9379C58.3447 13.6138 56.0276 10.5141 54.8089 6.62119C54.3524 5.16189 54.0119 3.66608 53.609 2.18925C53.2062 0.710969 52.3541 0.0419422 50.8456 0.00396259C49.966 -0.0179488 49.9239 0.0200309 49.9225 0.94615C49.9182 3.40314 49.9138 5.8616 49.9138 8.31859C49.9138 18.2693 49.9167 28.2214 49.9254 38.1735C49.9254 38.4218 49.7863 38.7724 50.0964 38.8937C50.3804 39.0047 50.5529 38.6906 50.7441 38.5212C51.7194 37.6491 52.6947 36.7785 53.6554 35.8933C54.1104 35.474 54.5321 35.0081 55.2712 35.8115V13.2077C55.6943 13.3129 55.8016 13.608 55.9696 13.8271C56.9232 15.0629 58.1027 16.0679 59.5345 16.6098C60.4039 16.9385 60.5793 17.3724 60.5764 18.1977C60.5575 25.1319 60.5894 32.0661 60.5575 39.0003C60.5532 39.9571 60.7358 40.7109 61.5705 41.2265C61.7849 41.3594 61.9371 41.7188 62.224 41.5683C62.4501 41.45 62.3356 41.1243 62.3356 40.892L62.3385 40.8935Z" fill="black"/>
<path d="M48.5763 23.509C46.2404 20.5685 43.9218 17.6149 41.6525 14.6218C41.1076 13.9031 40.5381 13.5963 39.6541 13.6577C38.6427 13.7278 38.6325 13.6752 38.6325 14.7445C38.6296 19.5591 38.6325 24.3738 38.6325 29.1884H38.6383C38.6383 32.5438 38.6383 35.8991 38.6383 39.256C38.6383 40.8365 38.6658 42.417 38.6383 43.9976C38.6282 44.6067 38.8513 44.8273 39.444 44.7893C40.0454 44.7513 40.6497 44.7776 41.2525 44.7718C41.9693 44.765 42.3287 44.4027 42.3307 43.685C42.3336 36.1708 42.335 28.6582 42.3437 21.144C42.3437 20.9176 42.2118 20.5875 42.4712 20.4823C42.7248 20.3801 42.8654 20.6985 43.0219 20.8665C44.4464 22.3857 45.8636 23.9122 47.2852 25.4343C47.7141 25.8944 48.143 26.356 48.5778 26.8103C48.7357 26.9754 49.0574 27.139 49.0458 26.803C49.0096 25.6958 49.3922 24.5388 48.5749 23.509H48.5763Z" fill="black"/>
<path d="M64.1761 35.3879C64.8572 35.6333 65.5411 35.8758 66.2382 36.0701C66.7859 36.222 67.0033 36.4966 66.9961 37.0984C66.9642 39.5291 67.0062 41.9613 66.9772 44.392C66.9685 45.0756 67.2714 45.2319 67.8539 45.191C68.3959 45.153 69.006 45.3093 68.9799 44.3978C68.9408 43.013 68.9697 41.6268 68.9697 40.2405H68.9784C68.9784 38.8791 68.9784 37.5177 68.9784 36.1562C68.9784 35.8057 68.9755 35.4901 68.5553 35.3353C67.1047 34.8036 65.6629 34.2485 64.2181 33.7036C64.0587 33.6437 63.8978 33.5868 63.7602 33.7621C63.4718 34.1287 63.7355 35.2301 64.1746 35.3893L64.1761 35.3879Z" fill="black"/>
<path d="M59.1737 38.5037C59.1751 38.7447 59.1882 38.9901 59.2389 39.2238C59.2882 39.4502 59.4548 39.6475 59.6939 39.6139C59.9519 39.5773 59.8852 39.3115 59.8867 39.1318C59.8939 37.9661 59.8896 36.8004 59.8896 35.6348C59.8896 34.4691 59.8867 33.3034 59.8896 32.1377C59.8896 31.8368 59.8751 31.5505 59.5635 31.3883C58.6868 30.9311 57.8115 30.471 56.9334 30.0152C56.5798 29.8326 56.416 29.9349 56.3697 30.3483C56.2175 31.6995 56.2987 31.8704 57.5217 32.4664C57.8463 32.6256 58.1637 32.8067 58.5028 32.9265C59.0186 33.1091 59.1752 33.4538 59.1679 33.9856C59.1462 35.4916 59.1636 36.9976 59.1737 38.5037Z" fill="black"/>
<path d="M52.4803 47.4142C53.0425 47.2828 53.9758 47.9737 54.1207 46.865C54.2366 45.9827 54.1395 45.0727 54.1279 44.1743C54.125 43.8836 54.0077 43.6806 53.6975 43.5856C52.1774 43.1255 51.5007 43.6104 51.4963 45.1807C51.4963 45.302 51.4963 45.4232 51.4963 45.5445C51.4963 45.9812 51.4963 46.418 51.4963 46.8548C51.4963 47.6188 52.0963 47.5033 52.4817 47.4128L52.4803 47.4142Z" fill="black"/>
<path d="M56.5856 47.4289C56.6102 47.4289 56.6334 47.4245 56.6581 47.426C57.0464 47.4362 57.2363 47.2463 57.2334 46.8534C57.2261 45.9798 57.2232 45.1063 57.2174 44.2328C57.2145 43.7887 56.9899 43.5579 56.5494 43.555C54.3598 43.536 54.609 43.4206 54.5728 45.3415C54.5728 45.4145 54.5728 45.4876 54.5728 45.5591C54.6177 47.7824 54.2134 47.407 56.5871 47.4289H56.5856Z" fill="black"/>
<path d="M52.8585 51.0778C54.3438 51.0705 54.3076 51.3729 54.2931 49.6507C54.2786 47.9416 54.4597 48.1958 52.8396 48.1782C51.3239 48.2191 51.3499 47.8729 51.3746 49.563C51.4007 51.2663 51.1471 51.0851 52.8599 51.0778H52.8585Z" fill="black"/>
<path d="M57.4087 49.6609C57.4029 47.9504 57.6246 48.187 55.9596 48.187C54.3032 48.187 54.5235 47.9416 54.5148 49.6624C54.5076 51.3189 54.3685 51.0632 55.9523 51.0808C57.6884 51.0662 57.413 51.1436 57.4072 49.6609H57.4087Z" fill="black"/>
</svg>
