<?xml version="1.0" standalone="no"?>
<!DOCTYPE svg PUBLIC "-//W3C//DTD SVG 20010904//EN"
 "http://www.w3.org/TR/2001/REC-SVG-20010904/DTD/svg10.dtd">
<svg version="1.0" xmlns="http://www.w3.org/2000/svg"
 width="720.000000pt" height="720.000000pt" viewBox="0 0 720.000000 720.000000"
 preserveAspectRatio="xMidYMid meet">
<metadata>
Created by potrace 1.14, written by Peter Selinger 2001-2017
</metadata>
<g transform="translate(0.000000,720.000000) scale(0.100000,-0.100000)"
fill="#000000" stroke="none">
<path d="M3303 5278 c-7 -13 -12 -2530 -5 -2555 2 -7 9 -13 16 -13 6 0 67 50
136 111 69 61 132 115 141 120 12 6 25 3 42 -11 l24 -19 1 742 c0 408 1 746 1
751 1 5 38 -29 84 -76 66 -69 97 -93 160 -123 43 -20 84 -47 93 -60 13 -19 15
-120 14 -757 -1 -617 1 -740 13 -769 15 -37 81 -94 97 -84 11 7 14 1612 4
1652 -3 12 -39 47 -78 77 -196 147 -334 338 -410 567 -29 87 -89 298 -100 347
-5 28 -58 83 -93 97 -43 18 -129 20 -140 3z"/>
<path d="M2568 4383 c-9 -2 -19 -12 -22 -21 -9 -32 -4 -2007 5 -2024 8 -14 25
-17 104 -17 109 0 134 13 136 72 0 17 1 371 1 785 0 800 -1 786 46 727 17 -22
220 -238 339 -361 23 -24 47 -44 53 -44 9 0 13 38 13 138 0 53 0 52 -278 405
-110 139 -209 266 -220 281 -11 15 -31 34 -44 43 -23 15 -99 24 -133 16z"/>
<path d="M3736 3301 c-10 -16 -13 -86 -5 -108 5 -14 37 -37 89 -63 52 -26 84
-48 89 -63 4 -12 7 -98 6 -190 -1 -170 6 -212 35 -212 23 0 23 520 0 539 -16
14 -192 106 -203 106 -3 0 -8 -4 -11 -9z"/>
<path d="M4219 3045 c-1 -8 -2 -21 -3 -27 -1 -7 2 -25 7 -40 9 -28 54 -50 154
-77 24 -7 47 -19 51 -29 5 -9 9 -138 9 -286 0 -249 1 -270 18 -282 20 -15 91
-12 107 4 11 11 18 588 8 617 -6 16 -303 135 -336 135 -8 0 -15 -7 -15 -15z"/>
<path d="M3523 2793 c-77 -63 -530 -450 -568 -486 -62 -58 -100 -70 -225 -73
-226 -5 -892 -14 -1335 -19 -247 -3 -535 -7 -640 -10 -104 -2 -278 -5 -385 -6
-107 -1 -202 -5 -210 -10 -23 -12 -150 -138 -150 -149 0 -5 6 -10 13 -11 6 0
663 -1 1458 -1 1358 0 1447 1 1479 17 19 10 39 23 45 29 13 13 32 28 290 241
272 225 285 235 303 235 10 -1 40 -20 67 -44 134 -117 554 -453 579 -464 24
-11 215 -13 955 -12 509 1 1164 1 1454 1 439 0 527 2 517 13 -6 8 -39 43 -74
78 l-64 65 -133 3 c-74 1 -210 4 -304 5 -93 2 -321 6 -505 9 -184 3 -492 9
-685 12 -192 3 -433 7 -535 9 -102 2 -259 4 -350 5 -142 2 -170 5 -204 22 -31
16 -220 171 -412 337 -247 216 -290 251 -307 251 -9 0 -42 -21 -74 -47z"/>
<path d="M3467 2412 c-47 -6 -62 -43 -63 -154 -1 -63 3 -101 10 -106 20 -12
144 -11 155 2 6 7 11 48 12 92 3 137 2 140 -28 152 -43 16 -56 18 -86 14z"/>
<path d="M3625 2396 c-19 -14 -23 -235 -5 -246 21 -13 151 -4 161 11 10 16 8
224 -3 235 -12 11 -138 12 -153 0z"/>
<path d="M3409 2090 c-13 -8 -16 -25 -15 -87 1 -43 5 -83 9 -89 8 -14 175 -16
183 -3 2 5 5 33 5 64 1 30 4 55 8 55 4 0 7 -21 6 -47 -4 -77 3 -82 92 -79 43
2 84 4 91 5 10 1 12 24 10 94 l-3 92 -85 1 c-78 2 -116 -8 -106 -25 3 -4 1
-13 -5 -21 -6 -11 -9 -8 -9 12 0 17 -6 28 -17 31 -31 9 -147 6 -164 -3z"/>
</g>
</svg>
